<svg xmlns="http://www.w3.org/2000/svg" width="1041" height="240" viewBox="0 0 1041 240" version="1.1"><path d="M 284.250 0.730 L 292 1.081 292 119.998 L 292 238.916 284.750 239.271 L 277.500 239.626 285 239.563 L 292.500 239.500 292.500 120 L 292.500 0.500 284.500 0.439 L 276.500 0.379 284.250 0.730 M 130.993 5.008 C 124.921 11.584, 118.723 24.678, 118.190 32.054 C 117.953 35.324, 118.082 38, 118.475 38 C 118.869 38, 120.386 37.169, 121.846 36.153 C 128.045 31.839, 138.147 30.729, 146 33.500 C 148.338 34.325, 150.420 35, 150.626 35 C 151.397 35, 150.951 27.363, 149.974 23.848 C 149.044 20.499, 141.970 9.018, 137.135 3.012 L 135.132 0.524 130.993 5.008 M 130.513 7.250 C 125.466 13.138, 120.076 24.473, 119.338 30.750 C 118.999 33.637, 118.983 36, 119.304 36 C 119.624 36, 121.530 35.030, 123.541 33.844 C 128.408 30.972, 139.772 30.199, 145.870 32.325 L 150.240 33.849 149.777 29.032 C 149.523 26.383, 148.297 22.255, 147.054 19.858 C 144.091 14.146, 136.139 3, 135.027 3 C 134.548 3, 132.516 4.912, 130.513 7.250 M 106.750 16.689 C 104.318 17.325, 104.543 18.188, 108.007 21.506 C 111.385 24.743, 112.601 24.247, 113.606 19.219 C 114.215 16.174, 114.095 16.006, 111.375 16.116 C 109.794 16.180, 107.713 16.438, 106.750 16.689 M 107.661 17.707 C 105.941 18.150, 105.967 18.336, 108.056 20.560 C 110.637 23.306, 112 22.920, 112 19.441 C 112 17.038, 111.315 16.764, 107.661 17.707 M 80.119 24.443 C 79.503 26.886, 79.073 32.849, 79.162 37.693 L 79.325 46.500 80.062 35.500 C 80.468 29.450, 81.122 23.488, 81.517 22.250 C 81.911 21.012, 82.009 20, 81.735 20 C 81.461 20, 80.734 21.999, 80.119 24.443 M 87 20.301 C 87 20.540, 89.989 22.483, 93.641 24.618 C 105.066 31.296, 113 39.604, 113 44.888 C 113 46.071, 111.941 48.718, 110.646 50.770 C 109.351 52.821, 107.971 55.513, 107.579 56.750 C 105.868 62.145, 103.763 57.091, 105.272 51.210 C 106.336 47.061, 105.843 40.767, 104.417 40.300 C 103.821 40.104, 102.764 41.845, 102.068 44.168 L 100.802 48.393 97.151 41.242 C 91.899 30.955, 87 25.936, 87 30.841 C 87 35.032, 90.017 42.165, 94.368 48.262 C 100.357 56.656, 100.269 57.958, 94.176 51.076 C 91.206 47.720, 88.921 45.931, 88.187 46.385 C 86.490 47.433, 86.728 50.037, 88.839 53.500 C 90.456 56.151, 90.493 56.630, 89.157 57.616 C 87.857 58.576, 87.833 59.183, 88.982 61.957 C 90.558 65.761, 96.015 69.597, 101.179 70.531 C 104.522 71.135, 104.918 71.555, 105.523 75.138 C 105.890 77.306, 107.768 81.425, 109.697 84.290 C 115.155 92.397, 116.107 94.735, 116.311 100.528 C 116.543 107.158, 115.296 108.616, 108.250 109.953 C 102.622 111.020, 96.337 113.890, 91.406 117.644 C 87.332 120.745, 84.620 120.657, 83.125 117.375 C 81.345 113.468, 74.908 105.939, 73.888 106.569 C 72.104 107.672, 73.077 111.018, 76.226 114.604 C 79.372 118.187, 79.390 118.262, 76.976 117.649 C 75.026 117.154, 75.138 117.318, 77.500 118.422 C 81.671 120.372, 81.681 119.002, 77.527 114.597 C 75.587 112.541, 74.002 109.877, 74.005 108.679 C 74.010 106.657, 74.191 106.717, 76.520 109.500 C 77.900 111.150, 80.162 114.364, 81.546 116.642 C 84.878 122.125, 87.427 122.710, 91.687 118.970 C 96.452 114.787, 100.513 112.870, 108.500 111.036 C 114.416 109.678, 115.708 108.997, 116.843 106.635 C 118.750 102.665, 116.908 92.900, 113.270 87.697 C 107.669 79.686, 107.043 78.468, 106.431 74.387 C 105.849 70.505, 105.555 70.184, 102.074 69.628 C 97.484 68.894, 92.054 65.351, 90.052 61.784 C 87.587 57.393, 89.754 57.347, 94.271 61.696 C 98.808 66.063, 101.931 68, 104.434 68 C 107.203 68, 106.119 66.414, 101.153 63.196 C 94.979 59.195, 88 51.656, 88 48.987 C 88 45.853, 90.906 47.870, 95.875 54.451 C 99.510 59.265, 102 61.298, 102 59.450 C 102 58.307, 98.835 52.854, 94.971 47.338 C 91.536 42.434, 88 33.966, 88 30.644 C 88 28.117, 92.959 34.738, 96.488 41.975 C 98.640 46.389, 100.667 50, 100.993 50 C 101.319 50, 102.217 47.862, 102.989 45.250 C 104.362 40.603, 104.400 40.569, 104.756 43.703 C 104.956 45.465, 104.653 48.597, 104.083 50.663 C 103.087 54.270, 104.357 62.111, 105.908 61.932 C 106.881 61.820, 114.010 46.648, 114.005 44.700 C 113.996 41.420, 111.137 37.292, 105.115 31.864 C 100.043 27.293, 87 18.967, 87 20.301 M 486.768 20.725 C 488.565 20.947, 491.265 20.943, 492.768 20.715 C 494.271 20.486, 492.800 20.304, 489.500 20.310 C 486.200 20.315, 484.971 20.502, 486.768 20.725 M 630.768 20.725 C 632.565 20.947, 635.265 20.943, 636.768 20.715 C 638.271 20.486, 636.800 20.304, 633.500 20.310 C 630.200 20.315, 628.971 20.502, 630.768 20.725 M 339.703 21.749 L 362.906 22.037 363.260 28.268 L 363.615 34.500 363.807 27.750 L 364 21 340.250 21.231 L 316.500 21.461 339.703 21.749 M 374.237 56.750 L 374.474 92.500 374.750 57.292 L 375.025 22.084 382.763 21.743 L 390.500 21.402 382.250 21.201 L 374 21 374.237 56.750 M 413.250 21.743 L 421 22.084 421 50.542 L 421 79 436.250 78.779 L 451.500 78.558 436.750 78.252 L 422 77.947 422 49.473 L 422 21 413.750 21.201 L 405.500 21.402 413.250 21.743 M 680.455 22.256 C 680.190 22.947, 680.098 39.035, 680.250 58.006 L 680.527 92.500 680.764 57.250 L 681 22 704.085 22 L 727.171 22 726.835 28.408 C 726.651 31.932, 726.837 34.605, 727.250 34.349 C 727.663 34.092, 728 30.984, 728 27.441 L 728 21 704.469 21 C 686.505 21, 680.823 21.297, 680.455 22.256 M 738.237 56.750 L 738.474 92.500 738.750 57.292 L 739.025 22.084 746.763 21.743 L 754.500 21.402 746.250 21.201 L 738 21 738.237 56.750 M 786.483 22.027 C 786.107 22.636, 786.070 23.403, 786.400 23.733 C 786.730 24.063, 787 23.808, 787 23.167 C 787 21.679, 802.607 21.543, 803.342 23.025 C 803.621 23.589, 803.735 23.476, 803.595 22.775 C 803.259 21.103, 787.481 20.413, 786.483 22.027 M 858.237 56.750 L 858.474 92.500 858.750 57.275 L 859.026 22.049 875.263 21.748 L 891.500 21.447 874.750 21.223 L 858 21 858.237 56.750 M 945.750 21.747 C 952.487 21.920, 963.513 21.920, 970.250 21.747 C 976.987 21.574, 971.475 21.432, 958 21.432 C 944.525 21.432, 939.013 21.574, 945.750 21.747 M 995.237 56.750 L 995.474 92.500 995.750 57.292 L 996.025 22.084 1003.763 21.743 L 1011.500 21.402 1003.250 21.201 L 995 21 995.237 56.750 M 753.449 56.500 C 753.449 75.200, 753.584 82.709, 753.749 73.186 C 753.913 63.663, 753.913 48.363, 753.748 39.186 C 753.583 30.009, 753.449 37.800, 753.449 56.500 M 190.320 36 C 190.320 39.575, 190.502 41.038, 190.723 39.250 C 190.945 37.462, 190.945 34.538, 190.723 32.750 C 190.502 30.962, 190.320 32.425, 190.320 36 M 332.349 42 C 332.349 46.675, 332.522 48.587, 332.732 46.250 C 332.943 43.912, 332.943 40.087, 332.732 37.750 C 332.522 35.412, 332.349 37.325, 332.349 42 M 873.471 56.749 L 873.500 79.500 879 79.575 L 884.500 79.649 879.269 79.275 L 874.037 78.901 873.740 56.450 L 873.442 33.999 873.471 56.749 M 949.201 41.750 L 949 50 963.750 49.780 L 978.500 49.559 964.292 49.253 L 950.083 48.946 949.743 41.223 L 949.402 33.500 949.201 41.750 M 587 38.458 C 587 40.828, 586.722 40.928, 579.250 41.257 L 571.500 41.598 579.750 41.799 L 588 42 588 39 C 588 37.350, 587.775 36, 587.500 36 C 587.225 36, 587 37.106, 587 38.458 M 60.938 41.663 C 59.764 44.751, 61.061 49.537, 64.130 53.438 C 67.360 57.544, 68.315 56.674, 67.524 50.347 C 66.325 40.751, 62.968 36.324, 60.938 41.663 M 203.509 41.627 C 201.222 45.118, 200.093 56.466, 202.099 55.807 C 204.199 55.116, 207.866 49.231, 208.586 45.396 C 209.785 39.001, 206.720 36.725, 203.509 41.627 M 226.500 40.091 C 224.631 40.979, 224.646 41.013, 226.739 40.617 C 228.754 40.235, 228.846 40.382, 227.659 42.077 C 225.802 44.727, 217 51.311, 217 50.049 C 217 49.475, 218.688 47.132, 220.750 44.842 C 223.295 42.015, 223.806 41.046, 222.339 41.826 C 221.151 42.458, 219.163 44.668, 217.922 46.737 C 213.939 53.379, 209.206 58.656, 202.522 63.908 C 198.935 66.727, 196 68.856, 196 68.639 C 196 68.422, 196.700 66.570, 197.555 64.524 C 199.207 60.568, 199.172 53.500, 197.500 53.500 C 196.950 53.500, 194.024 58.450, 190.998 64.500 C 187.973 70.550, 184.498 76.901, 183.278 78.613 C 182.058 80.325, 181.383 82.052, 181.780 82.451 C 184.717 85.408, 196.145 87.192, 197.554 84.913 C 198.629 83.173, 196.574 81.880, 191.871 81.339 C 185.737 80.632, 184.743 80.219, 185.671 78.757 C 186.110 78.066, 186.498 77.275, 186.534 77 C 186.772 75.154, 188.265 72, 188.901 72 C 190.626 72, 190.912 73.439, 189.498 75.002 C 187.648 77.046, 187.574 77.028, 200.206 77.654 C 210.664 78.172, 215.996 76.744, 218.070 72.870 C 218.970 71.188, 218.668 71, 215.072 71 C 212.873 71, 208.920 71.836, 206.287 72.858 C 203.654 73.880, 198.800 74.991, 195.500 75.328 C 189.605 75.928, 189.543 75.909, 191.975 74.219 C 193.336 73.274, 196.317 71.084, 198.599 69.352 C 204.666 64.751, 205.763 64.339, 213.891 63.617 C 221.836 62.911, 228 60.625, 228 58.386 C 228 57.428, 226.843 57.041, 224.250 57.132 L 220.500 57.263 223.913 57.882 C 226.658 58.379, 227.049 58.721, 225.913 59.628 C 224.116 61.062, 221.745 61.713, 215.500 62.488 C 210.875 63.062, 210.650 62.995, 212.500 61.586 C 214.871 59.782, 213.773 59.516, 210.712 61.154 C 207.643 62.797, 216.335 52.586, 220.339 49.846 C 229.271 43.733, 233.745 36.649, 226.500 40.091 M 39 40.918 C 39 41.423, 41.311 43.785, 44.136 46.168 C 50.409 51.459, 60.950 62.195, 60.979 63.323 C 60.991 63.776, 58.583 62.764, 55.628 61.073 C 52.674 59.383, 49.660 58, 48.932 58 C 48.203 58, 49.969 59.177, 52.855 60.615 C 55.742 62.053, 57.928 63.405, 57.715 63.618 C 56.750 64.583, 47.781 62.539, 44.803 60.675 L 41.500 58.608 44.500 57.922 L 47.500 57.237 44.250 57.118 C 41.994 57.036, 41 57.453, 41 58.480 C 41 60.705, 47.645 63.642, 55.398 64.844 C 60.391 65.618, 63.720 66.859, 67.450 69.335 C 70.284 71.217, 74.380 73.664, 76.551 74.772 C 78.723 75.880, 81.357 77.735, 82.405 78.894 L 84.310 81 80.405 81.015 C 78.257 81.024, 75.825 81.473, 75 82.014 C 73.501 82.996, 73.837 82.976, 83 81.525 C 87.050 80.884, 86.788 82.254, 82.466 84.315 C 78.060 86.416, 75.590 86.448, 73.571 84.429 C 72.182 83.040, 72 83.034, 72 84.383 C 72 85.314, 73.267 86.145, 75.250 86.514 C 79.350 87.278, 88.454 83.574, 87.269 81.626 C 84.382 76.879, 80.285 72.039, 79.139 72.021 C 78.352 72.009, 78.774 72.807, 80.139 73.914 C 83.686 76.789, 82.030 77.104, 77.750 74.368 C 75.187 72.730, 74.020 71.263, 74.063 69.735 L 74.127 67.500 75.031 69.750 C 76.290 72.882, 77.174 72.587, 75.975 69.435 C 74.451 65.426, 74.982 63.086, 76.584 66.750 C 77.366 68.537, 78.454 70, 79.003 70 C 80.269 70, 80.270 70.018, 78.585 65.242 C 76.938 60.572, 72.888 54.030, 71.634 54.012 C 70.666 53.999, 71.369 65.115, 72.582 68.994 C 73.275 71.214, 72.767 70.993, 67.976 66.994 C 65.015 64.522, 62.978 63.132, 63.450 63.905 C 64.040 64.868, 63.942 65.082, 63.138 64.585 C 62.494 64.187, 62.240 63.420, 62.574 62.881 C 62.907 62.341, 61.100 59.676, 58.558 56.959 C 56.016 54.241, 53.078 50.014, 52.028 47.566 C 50.816 44.739, 49.021 42.545, 47.109 41.557 C 43.804 39.847, 39 39.469, 39 40.918 M 204.253 42.344 C 202.515 46.159, 201.504 54.425, 202.879 53.575 C 204.770 52.406, 208.142 45.003, 207.809 42.752 C 207.367 39.754, 205.529 39.543, 204.253 42.344 M 42.076 43.606 C 43.409 45.040, 46.367 47.505, 48.649 49.085 L 52.798 51.957 50.905 48.039 C 48.712 43.500, 45.586 41, 42.103 41 L 39.651 41 42.076 43.606 M 62 44.921 C 62 47.290, 62.759 49.689, 63.967 51.139 L 65.933 53.500 65.953 50 C 65.980 45.221, 65.075 42.243, 63.401 41.601 C 62.349 41.197, 62 42.023, 62 44.921 M 343.750 49.737 C 346.637 49.939, 351.363 49.939, 354.250 49.737 C 357.137 49.535, 354.775 49.370, 349 49.370 C 343.225 49.370, 340.863 49.535, 343.750 49.737 M 705.789 49.741 C 709.248 49.937, 714.648 49.936, 717.789 49.738 C 720.930 49.540, 718.100 49.380, 711.500 49.382 C 704.900 49.384, 702.330 49.546, 705.789 49.741 M 920.349 57 C 920.349 61.675, 920.522 63.587, 920.732 61.250 C 920.943 58.912, 920.943 55.087, 920.732 52.750 C 920.522 50.412, 920.349 52.325, 920.349 57 M 360.320 56 C 360.320 59.575, 360.502 61.038, 360.723 59.250 C 360.945 57.462, 360.945 54.538, 360.723 52.750 C 360.502 50.962, 360.320 52.425, 360.320 56 M 455.336 57 C 455.336 61.125, 455.513 62.813, 455.728 60.750 C 455.944 58.688, 455.944 55.313, 455.728 53.250 C 455.513 51.188, 455.336 52.875, 455.336 57 M 614.320 57 C 614.320 60.575, 614.502 62.038, 614.723 60.250 C 614.945 58.462, 614.945 55.538, 614.723 53.750 C 614.502 51.962, 614.320 53.425, 614.320 57 M 667.310 56.500 C 667.315 59.800, 667.502 61.029, 667.725 59.232 C 667.947 57.435, 667.943 54.735, 667.715 53.232 C 667.486 51.729, 667.304 53.200, 667.310 56.500 M 72.038 60 C 72.034 62.475, 72.467 65.175, 73 66 C 73.765 67.184, 73.973 66.964, 73.985 64.950 C 73.993 63.548, 74.426 61.973, 74.946 61.450 C 75.541 60.852, 75.179 59.573, 73.968 58 L 72.044 55.500 72.038 60 M 91.528 58.046 C 92.817 60.131, 102.220 67, 103.786 67 C 104.669 67, 103.391 65.718, 100.946 64.151 C 98.501 62.585, 95.643 60.335, 94.595 59.151 C 92.661 56.967, 90.346 56.132, 91.528 58.046 M 193.708 63.522 C 190.745 69.564, 190.328 71.522, 192.250 70.367 C 193.099 69.857, 193.060 70.158, 192.128 71.308 C 190.571 73.227, 191.964 73.636, 193.800 71.800 C 195.295 70.305, 195.391 67.640, 193.917 68.551 C 193.322 68.919, 193.484 67.933, 194.277 66.360 C 195.706 63.527, 197.326 58, 196.727 58 C 196.556 58, 195.198 60.485, 193.708 63.522 M 83.068 60.270 C 82.843 62.821, 88.880 74.441, 95.769 84.716 C 108.567 103.806, 108.743 104.472, 100.803 103.832 C 98.049 103.610, 96.594 103.923, 96.416 104.775 C 96.270 105.476, 96.363 105.635, 96.624 105.127 C 96.885 104.619, 98.872 104.441, 101.040 104.732 C 103.438 105.054, 105.561 104.779, 106.464 104.030 C 108.345 102.469, 107.382 100.500, 97.708 86.136 C 91.539 76.975, 87.968 70.581, 84.226 62 C 83.626 60.625, 83.105 59.846, 83.068 60.270 M 964.500 62 L 950.500 62.586 964.191 62.793 C 972.471 62.918, 978.126 62.605, 978.500 62 C 978.840 61.450, 978.979 61.093, 978.809 61.207 C 978.639 61.321, 972.200 61.678, 964.500 62 M 332.402 77 C 332.402 85.525, 332.556 89.013, 332.743 84.750 C 332.931 80.487, 332.931 73.513, 332.743 69.250 C 332.556 64.987, 332.402 68.475, 332.402 77 M 340.292 62.742 C 344.027 62.935, 349.877 62.934, 353.292 62.739 C 356.706 62.545, 353.650 62.387, 346.500 62.389 C 339.350 62.390, 336.556 62.550, 340.292 62.742 M 702.206 62.741 C 705.895 62.932, 712.195 62.934, 716.206 62.743 C 720.218 62.553, 717.200 62.396, 709.500 62.395 C 701.800 62.393, 698.518 62.549, 702.206 62.741 M 949.434 70.500 L 949.500 79.500 965.751 79.538 L 982.002 79.577 966.040 79.264 L 950.077 78.951 949.723 70.225 L 949.369 61.500 949.434 70.500 M 31 71.385 C 44.704 77.116, 59.256 85.998, 79.218 100.816 C 86.764 106.417, 93.626 111, 94.468 111 C 95.424 111, 95.956 110.154, 95.884 108.750 C 95.797 107.057, 95.655 106.933, 95.311 108.250 C 95.059 109.212, 94.435 110, 93.923 110 C 93.411 110, 86.925 105.486, 79.508 99.970 C 72.091 94.453, 61.630 87.184, 56.261 83.817 C 46.052 77.415, 29.261 68.970, 26.884 69.042 C 26.123 69.066, 27.975 70.120, 31 71.385 M 235 71.576 C 229.181 74.281, 207 87.033, 207 87.674 C 207 88.240, 212.499 85.286, 219.907 80.742 C 227.406 76.142, 239.843 70, 241.658 70 C 242.327 70, 243.055 71.463, 243.277 73.250 C 243.674 76.450, 243.682 76.442, 243.840 72.750 C 244.037 68.132, 242.771 67.964, 235 71.576 M 51.126 71.348 C 50.277 72.371, 50.430 73.079, 51.755 74.279 C 53.665 76.007, 58.435 78.041, 60.315 77.930 C 60.967 77.891, 59.747 77.217, 57.605 76.432 C 52.981 74.737, 50.816 73.107, 51.570 71.887 C 52.489 70.399, 55.751 70.883, 62.041 73.438 C 65.341 74.780, 67.799 75.484, 67.502 75.003 C 66.794 73.857, 56.450 70, 54.085 70 C 53.073 70, 51.741 70.607, 51.126 71.348 M 204 74.605 L 197.500 76.929 204 76.961 C 208.762 76.984, 211.369 76.463, 213.750 75.011 C 215.537 73.921, 217 72.798, 217 72.515 C 217 71.326, 210.042 72.445, 204 74.605 M 71 77.477 C 73.366 78.891, 73.179 78.947, 67.500 78.514 L 61.500 78.057 66.454 79.086 C 71.544 80.143, 76.989 79.527, 75.395 78.074 C 74.903 77.625, 73.150 76.971, 71.500 76.621 L 68.500 75.984 71 77.477 M 782.651 76.750 C 782.394 77.162, 786.080 77.379, 790.842 77.232 C 806.821 76.737, 808.594 76.362, 795.809 76.180 C 788.829 76.081, 782.908 76.338, 782.651 76.750 M 1025.205 78.748 L 1039.910 79.053 1040.259 85.776 L 1040.608 92.500 1040.804 85.250 L 1041 78 1025.750 78.221 L 1010.500 78.442 1025.205 78.748 M 34.003 80.750 C 34.006 82.904, 39.998 93.014, 44.671 98.750 C 48.580 103.548, 48.482 103.807, 43.799 101.044 C 40.240 98.944, 35.933 98.662, 36.668 100.577 C 37.249 102.093, 44.346 107.147, 49.710 109.866 C 56.596 113.356, 56.036 112.243, 49 108.453 C 41.737 104.541, 36.451 100, 39.161 100 C 40.049 100, 43.065 101.575, 45.864 103.500 C 52.746 108.234, 54.276 107.909, 49.396 102.750 C 42.899 95.882, 35 83.934, 35 80.975 C 35 79.007, 40.546 84.618, 44.145 90.226 C 47.843 95.989, 49.072 96.608, 45.748 91.033 C 42.987 86.403, 36.350 79, 34.960 79 C 34.432 79, 34.001 79.787, 34.003 80.750 M 230.070 82.573 C 228.345 84.538, 225.756 88.010, 224.318 90.288 C 221.813 94.257, 221.668 94.335, 220.860 92.151 C 220.164 90.270, 218 89.867, 218 91.618 C 218 91.893, 218.450 91.840, 219 91.500 C 219.567 91.149, 220 91.990, 220 93.441 C 220 97.414, 221.380 96.528, 225.774 89.733 C 231.976 80.143, 236.730 76.820, 232.474 85.050 C 231.635 86.672, 231.174 88, 231.449 88 C 232.255 88, 235 82.241, 235 80.550 C 235 78.088, 233.449 78.725, 230.070 82.573 M 183 81.775 C 183 82.641, 190.290 85, 192.968 85 C 196.493 85, 197.051 83.260, 193.750 82.563 C 190.753 81.930, 183 81.361, 183 81.775 M 243.150 84.125 C 243.067 85.569, 242.777 88.269, 242.503 90.125 L 242.007 93.500 243.060 90.144 C 243.639 88.298, 243.929 85.598, 243.706 84.144 L 243.300 81.500 243.150 84.125 M 81 90.045 C 81 93.563, 85.396 97, 89.896 97 C 94.470 97, 95.105 96.399, 93.898 93.206 C 92.955 90.708, 87.563 88, 83.532 88 C 81.648 88, 81 88.523, 81 90.045 M 181.001 89.123 C 177.806 90.397, 174 93.959, 174 95.674 C 174 96.581, 175.437 97, 178.545 97 C 183.616 97, 188 93.775, 188 90.045 C 188 87.759, 185.310 87.405, 181.001 89.123 M 195 96.113 C 185.854 103.119, 179.283 108.642, 184 105.360 C 189.293 101.676, 206 88.845, 206 88.463 C 206 87.696, 205.873 87.785, 195 96.113 M 82 90.326 C 82 92.732, 86.501 96, 89.814 96 C 94.046 96, 94.015 93.590, 89.750 90.989 C 86.027 88.719, 82 88.375, 82 90.326 M 180.207 90.668 C 178.396 91.561, 176.468 93.126, 175.922 94.146 C 175.033 95.806, 175.343 96, 178.892 96 C 181.982 96, 183.311 95.420, 184.927 93.365 C 186.067 91.916, 187 90.341, 187 89.865 C 187 88.512, 183.819 88.888, 180.207 90.668 M 48.079 91.677 C 48.124 92.727, 48.372 92.970, 48.662 92.250 C 49.687 89.711, 51 91.113, 51.004 94.750 C 51.008 98.561, 54.137 105, 55.985 105 C 56.543 105, 57 103.687, 57 102.082 C 57 100.477, 57.337 98.339, 57.750 97.332 C 58.284 96.029, 58.671 96.943, 59.093 100.500 L 59.686 105.500 59.843 99.750 C 59.935 96.389, 59.574 94, 58.975 94 C 57.662 94, 56 98.351, 56 101.788 L 56 104.445 54.268 101.973 C 53.316 100.613, 52.303 97.480, 52.018 95.011 C 51.646 91.789, 51.006 90.428, 49.750 90.188 C 48.582 89.965, 48.026 90.459, 48.079 91.677 M 217.136 94.849 C 216.948 98.094, 213.976 104.103, 212.890 103.432 C 212.401 103.130, 212 101.360, 212 99.500 C 212 96.563, 210.580 94.086, 209.511 95.156 C 209.315 95.352, 208.917 98.434, 208.627 102.006 L 208.099 108.500 209.274 102 L 210.449 95.500 210.974 101 C 211.263 104.025, 211.950 106.446, 212.500 106.380 C 214.196 106.176, 218.193 97.347, 217.719 94.851 L 217.272 92.500 217.136 94.849 M 220.703 101.792 C 216.209 106.395, 215.898 107.921, 220.058 104.959 C 221.739 103.762, 222.863 102.530, 222.555 102.222 C 222.248 101.914, 222.741 100.838, 223.653 99.831 C 226.710 96.453, 224.448 97.957, 220.703 101.792 M 225.441 100.555 C 223.566 102.057, 223.574 102.074, 225.684 101.055 C 226.886 100.475, 228.860 100, 230.072 100 C 232.021 100, 231.867 100.318, 228.743 102.750 C 226.800 104.263, 224.376 106.072, 223.355 106.770 C 221.788 107.844, 221.888 107.863, 224 106.895 C 227.570 105.259, 233 101.068, 233 99.949 C 233 98.422, 227.559 98.858, 225.441 100.555 M 234.633 106.916 C 230.359 113.840, 223.527 120.248, 213.431 126.800 C 202.993 133.575, 201.870 134.448, 207.500 131.411 C 219.901 124.721, 232.900 113.036, 237.101 104.802 C 239.974 99.170, 238.785 100.188, 234.633 106.916 M 20.607 106.582 C 19.626 109.139, 19.905 109.513, 21.336 107.556 C 22.593 105.837, 22.798 105.908, 24.836 108.769 C 27.731 112.835, 27.590 113.288, 23.570 112.818 C 21.684 112.598, 20.360 112.774, 20.629 113.209 C 21.403 114.462, 28 114.135, 28 112.844 C 28 111.371, 23.173 105, 22.056 105 C 21.593 105, 20.941 105.712, 20.607 106.582 M 243.636 108.804 C 242.186 110.896, 241 112.921, 241 113.304 C 241 113.687, 242.791 114, 244.981 114 C 248.352 114, 249.054 113.631, 249.566 111.593 C 250.177 109.157, 248.623 105, 247.101 105 C 246.645 105, 245.086 106.712, 243.636 108.804 M 60.063 107.059 C 60.029 107.916, 60.563 109.340, 61.250 110.222 C 62.701 112.084, 69.033 116.009, 70.500 115.956 C 71.050 115.936, 70.150 115.207, 68.500 114.335 C 64.464 112.202, 61.933 109.912, 60.945 107.500 C 60.369 106.091, 60.108 105.961, 60.063 107.059 M 244.229 109.267 L 241.959 112.500 244.601 112.828 C 248.029 113.254, 249.413 111.783, 248.608 108.573 C 247.767 105.223, 246.983 105.347, 244.229 109.267 M 34.594 108 C 36.241 111.331, 41.332 117.088, 45.297 120.103 C 48.861 122.813, 48.653 122.478, 43.933 117.900 C 40.871 114.930, 37.350 111.150, 36.108 109.500 C 34.867 107.850, 34.186 107.175, 34.594 108 M 193.833 108.066 C 192.916 108.583, 190.509 111.263, 188.485 114.021 C 183.356 121.007, 181.914 121.597, 177.822 118.383 L 174.500 115.773 177.745 118.868 C 180.532 121.526, 181.319 121.812, 183.329 120.896 C 184.616 120.309, 186.382 118.630, 187.254 117.165 C 188.125 115.699, 190.283 113.150, 192.048 111.500 C 195.097 108.651, 195.196 108.626, 194.007 111 C 193.319 112.375, 191.601 114.737, 190.191 116.250 L 187.626 119 190.063 118.985 C 191.726 118.974, 192.088 118.708, 191.203 118.146 C 190.172 117.493, 190.237 117.048, 191.519 115.985 C 193.469 114.366, 196.242 109.203, 195.811 107.994 C 195.640 107.516, 194.750 107.548, 193.833 108.066 M 205.631 110.855 C 204.701 111.883, 202.149 113.531, 199.960 114.518 C 197.771 115.505, 196.164 116.498, 196.390 116.724 C 196.975 117.308, 206.723 112.258, 207.529 110.952 C 208.731 109.009, 207.365 108.939, 205.631 110.855 M 209.819 113.799 C 205.639 116.438, 200.323 119.453, 198.004 120.498 C 194.506 122.076, 194.104 122.524, 195.644 123.129 C 198.289 124.170, 200.872 124.206, 199.257 123.180 C 197.240 121.899, 207.379 118.705, 210.964 119.492 C 214.909 120.358, 214.824 121.705, 210.750 122.881 C 208.963 123.397, 208.266 123.860, 209.203 123.910 C 211.285 124.020, 216 121.958, 216 120.937 C 216 119.991, 210.341 118, 207.651 118 C 204.986 118, 206.044 117.007, 213.441 112.566 C 216.709 110.605, 218.940 109, 218.400 109 C 217.860 109, 213.999 111.159, 209.819 113.799 M 610.750 111.723 C 612.538 111.945, 615.462 111.945, 617.250 111.723 C 619.038 111.502, 617.575 111.320, 614 111.320 C 610.425 111.320, 608.962 111.502, 610.750 111.723 M 764.750 111.723 C 766.538 111.945, 769.462 111.945, 771.250 111.723 C 773.038 111.502, 771.575 111.320, 768 111.320 C 764.425 111.320, 762.962 111.502, 764.750 111.723 M 333.789 112.741 C 337.248 112.937, 342.648 112.936, 345.789 112.738 C 348.930 112.540, 346.100 112.380, 339.500 112.382 C 332.900 112.384, 330.330 112.546, 333.789 112.741 M 392.217 146.691 C 392.098 166.046, 392.337 182.091, 392.750 182.347 C 393.433 182.770, 393.416 155.595, 392.713 124 C 392.560 117.125, 392.337 127.336, 392.217 146.691 M 440.328 118.500 C 440.333 122.350, 440.513 123.802, 440.730 121.728 C 440.946 119.653, 440.943 116.503, 440.722 114.728 C 440.501 112.952, 440.324 114.650, 440.328 118.500 M 454.451 147.500 C 454.451 167.300, 454.585 175.542, 454.748 165.815 C 454.912 156.088, 454.912 139.888, 454.749 129.815 C 454.586 119.742, 454.452 127.700, 454.451 147.500 M 473.250 112.739 C 476.413 112.937, 481.587 112.937, 484.750 112.739 C 487.913 112.541, 485.325 112.378, 479 112.378 C 472.675 112.378, 470.087 112.541, 473.250 112.739 M 522.451 147.500 C 522.451 167.300, 522.585 175.542, 522.748 165.815 C 522.912 156.088, 522.912 139.888, 522.749 129.815 C 522.586 119.742, 522.452 127.700, 522.451 147.500 M 658.451 147.500 C 658.451 167.300, 658.585 175.542, 658.748 165.815 C 658.912 156.088, 658.912 139.888, 658.749 129.815 C 658.586 119.742, 658.452 127.700, 658.451 147.500 M 719.775 147.500 C 719.624 167.026, 719.837 183.001, 720.250 183 C 720.663 183, 721 167.025, 721 147.500 C 721 127.975, 720.786 112, 720.525 112 C 720.263 112, 719.926 127.975, 719.775 147.500 M 56.191 118.841 C 54.921 119.203, 53.847 119.950, 53.803 120.500 C 53.619 122.833, 58.709 124.026, 68 123.828 C 79.018 123.593, 85.582 125.203, 84.402 127.850 C 83.997 128.758, 82.954 132.310, 82.083 135.745 C 81.212 139.179, 80.275 141.990, 80 141.990 C 79.725 141.990, 78.250 140.980, 76.722 139.745 L 73.944 137.500 76.472 133.803 C 81.291 126.755, 79.198 124.614, 73.732 131 C 71.849 133.200, 70.044 135, 69.721 135 C 69.046 135, 60.615 130.043, 54 125.756 C 49.713 122.979, 49.642 122.965, 52.500 125.477 C 54.150 126.927, 57.525 129.195, 60 130.518 C 62.475 131.840, 65.937 133.868, 67.692 135.023 L 70.885 137.123 72.340 134.309 C 73.983 131.132, 78 127.155, 78 128.705 C 78 129.264, 76.875 131.379, 75.500 133.405 C 74.125 135.431, 73.017 137.406, 73.038 137.794 C 73.059 138.182, 74.871 139.742, 77.065 141.260 C 79.775 143.135, 81.160 143.616, 81.381 142.760 C 81.560 142.067, 82.402 138.800, 83.252 135.500 C 84.102 132.200, 85.113 128.517, 85.498 127.315 C 86.117 125.386, 85.690 125, 81.850 124.017 C 79.457 123.405, 75.297 121.985, 72.605 120.862 C 67.369 118.678, 59.960 117.765, 56.191 118.841 M 56 119.959 L 53.500 120.719 56.315 121.860 C 57.863 122.487, 61.688 122.964, 64.815 122.919 L 70.500 122.838 66.500 120.945 C 62.259 118.938, 60.043 118.730, 56 119.959 M 16.100 125.750 C 16.155 126.713, 16.595 128.625, 17.078 130 C 17.760 131.941, 17.835 131.635, 17.411 128.634 L 16.866 124.768 27.472 125.161 C 33.305 125.377, 37.273 125.236, 36.289 124.847 C 35.305 124.458, 30.337 124.109, 25.250 124.070 C 17.044 124.008, 16.011 124.198, 16.100 125.750 M 238 124.620 C 243.804 125.364, 253.004 125.443, 253.002 124.750 C 253.001 124.338, 249.063 124.067, 244.250 124.150 C 239.438 124.232, 236.625 124.444, 238 124.620 M 332.429 147.500 C 332.429 160.150, 332.573 165.187, 332.747 158.694 C 332.922 152.200, 332.921 141.850, 332.746 135.694 C 332.571 129.537, 332.428 134.850, 332.429 147.500 M 469.444 134.500 L 469.500 143.500 477 143.576 L 484.500 143.651 477.287 143.283 L 470.074 142.914 469.731 134.207 L 469.388 125.500 469.444 134.500 M 537.432 132.747 L 537.500 140.500 552.251 140.542 L 567.002 140.583 552.543 140.265 L 538.083 139.947 537.724 132.470 L 537.365 124.993 537.432 132.747 M 45.500 128.839 C 56.804 133.620, 62.126 137.001, 68.500 143.451 C 74.722 149.746, 78.703 156.726, 77.644 159.484 C 77.308 160.360, 73.089 162.887, 68.267 165.101 C 63.445 167.314, 58.289 170.281, 56.808 171.694 C 54.119 174.260, 54.111 174.261, 49.808 172.555 C 47.439 171.616, 45.950 171.259, 46.500 171.763 C 47.050 172.267, 48.956 173.254, 50.736 173.955 C 53.752 175.144, 54.196 175.036, 57.248 172.366 C 59.050 170.790, 64.463 167.751, 69.277 165.614 C 79.794 160.945, 80.518 159.559, 76.397 151.989 C 72.304 144.467, 62.820 136.098, 52.908 131.261 C 48.284 129.004, 43.150 126.869, 41.500 126.518 C 39.850 126.166, 41.650 127.211, 45.500 128.839 M 191 128.531 C 191 129.464, 191.973 131.958, 193.161 134.073 L 195.322 137.918 192.911 139.926 C 191.585 141.030, 189.938 141.948, 189.250 141.967 C 188.563 141.985, 188 142.466, 188 143.035 C 188 144.213, 190.027 143.219, 193.976 140.103 L 196.453 138.150 194.226 134.189 C 191.048 128.534, 191.524 126.902, 195.156 131 L 198.258 134.500 195.793 131.055 C 192.966 127.103, 191 126.068, 191 128.531 M 211.405 133.849 C 204.230 138.526, 195.035 148.050, 192.055 153.891 C 190.848 156.258, 190.015 158.349, 190.204 158.538 C 190.393 158.727, 191.782 156.524, 193.291 153.643 C 196.702 147.128, 205.614 138.245, 213.441 133.558 C 216.709 131.601, 218.916 130, 218.346 130 C 217.776 130, 214.653 131.732, 211.405 133.849 M 18.438 135.909 C 18.754 137.784, 20.612 142.641, 22.565 146.702 C 26.420 154.717, 36.372 166.195, 42.154 169.294 C 45.065 170.854, 45.175 170.862, 43 169.356 C 38.301 166.103, 28.362 155.474, 25.580 150.728 C 24.052 148.120, 21.690 142.952, 20.332 139.243 C 18.936 135.433, 18.112 133.983, 18.438 135.909 M 26.728 133.850 C 27.954 134.207, 31.554 136.761, 34.728 139.524 C 37.903 142.287, 41.625 145.239, 43 146.084 C 50.905 150.944, 53 152.112, 53 151.654 C 53 151.374, 50.188 149.452, 46.750 147.383 C 43.313 145.315, 37.836 141.232, 34.580 138.311 C 31.167 135.250, 27.778 133.042, 26.580 133.100 C 24.598 133.195, 24.605 133.230, 26.728 133.850 M 249.379 138.811 C 248.236 141.940, 246.978 145.400, 246.582 146.500 C 246.120 147.784, 246.411 147.605, 247.395 146 C 249.169 143.106, 252.382 134.049, 251.830 133.497 C 251.624 133.291, 250.521 135.683, 249.379 138.811 M 629.318 134.500 C 629.501 136.295, 630.366 136.530, 637.761 136.790 C 645.795 137.074, 645.997 137.024, 645.884 134.790 C 645.798 133.097, 645.649 132.956, 645.311 134.250 C 644.927 135.717, 643.662 136, 637.500 136 C 631.360 136, 630.062 135.711, 629.631 134.250 C 629.229 132.888, 629.160 132.943, 629.318 134.500 M 233.876 139.623 C 226.195 146.398, 224.831 147.760, 227.583 145.904 C 230.431 143.985, 241.538 134, 240.826 134 C 240.510 134, 237.383 136.531, 233.876 139.623 M 242.079 135.109 C 241.967 137.394, 234.844 145.210, 228.893 149.578 C 225.195 152.293, 224.199 153.511, 225.172 154.127 C 227.431 155.560, 231.689 155.087, 233.079 153.250 C 234.206 151.761, 234.194 151.687, 233.002 152.750 C 232.231 153.438, 230.227 153.948, 228.550 153.884 C 226.842 153.819, 226.275 153.566, 227.262 153.308 C 228.231 153.055, 228.807 152.496, 228.540 152.065 C 228.274 151.635, 230.233 149.531, 232.893 147.391 C 238.463 142.911, 243.384 136.530, 242.656 134.732 C 242.344 133.961, 242.128 134.102, 242.079 135.109 M 27.113 136.998 C 27.785 138.372, 30.924 142.084, 34.088 145.248 C 38.050 149.210, 39.294 151, 38.087 151 C 35.621 151, 34.824 152.083, 36.131 153.658 C 37.420 155.210, 42.594 155.466, 43.487 154.021 C 43.841 153.449, 45.512 153.968, 47.509 155.271 C 50.554 157.257, 50.706 157.554, 48.904 158 C 45.018 158.961, 46.541 160.501, 51.500 160.625 L 56.500 160.751 51.500 160.032 C 47.638 159.478, 47.240 159.278, 49.750 159.157 C 51.538 159.071, 53 158.609, 53 158.132 C 53 157.654, 50.009 155.517, 46.353 153.382 C 39.629 149.455, 32.208 142.990, 28.122 137.500 C 26.325 135.085, 26.128 134.987, 27.113 136.998 M 42 140.893 C 42 143.232, 44.483 144.328, 45.903 142.617 C 46.642 141.726, 46.605 141.005, 45.776 140.176 C 43.991 138.391, 42 138.769, 42 140.893 M 681.797 139.745 C 686.361 139.930, 693.561 139.929, 697.797 139.742 C 702.034 139.555, 698.300 139.404, 689.500 139.405 C 680.700 139.406, 677.234 139.559, 681.797 139.745 M 422.203 140.734 L 436.906 141.053 437.274 146.776 L 437.643 152.500 437.571 146.500 L 437.500 140.500 422.500 140.457 L 407.500 140.414 422.203 140.734 M 786.336 147 C 786.336 151.125, 786.513 152.813, 786.728 150.750 C 786.944 148.688, 786.944 145.313, 786.728 143.250 C 786.513 141.188, 786.336 142.875, 786.336 147 M 595.328 147.500 C 595.333 151.350, 595.513 152.802, 595.730 150.728 C 595.946 148.653, 595.943 145.503, 595.722 143.728 C 595.501 141.952, 595.324 143.650, 595.328 147.500 M 749.328 147.500 C 749.333 151.350, 749.513 152.802, 749.730 150.728 C 749.946 148.653, 749.943 145.503, 749.722 143.728 C 749.501 141.952, 749.324 143.650, 749.328 147.500 M 802.310 147.500 C 802.315 150.800, 802.502 152.029, 802.725 150.232 C 802.947 148.435, 802.943 145.735, 802.715 144.232 C 802.486 142.729, 802.304 144.200, 802.310 147.500 M 36.500 153 C 36.840 153.550, 38.441 154, 40.059 154 C 41.677 154, 43 153.550, 43 153 C 43 152.450, 41.398 152, 39.441 152 C 37.323 152, 36.132 152.405, 36.500 153 M 537.355 161.500 C 537.352 166.450, 537.521 168.601, 537.731 166.280 C 537.940 163.959, 537.943 159.909, 537.736 157.280 C 537.530 154.651, 537.358 156.550, 537.355 161.500 M 59.250 155.080 C 61.590 156.443, 61.455 157.460, 58.750 158.852 C 56.541 159.989, 56.546 159.999, 59 159.373 C 60.375 159.022, 61.650 158.345, 61.833 157.868 C 62.284 156.694, 67.139 156.794, 69 158.015 C 70.333 158.891, 70.333 159.115, 69 160.031 C 68.175 160.598, 66.037 160.913, 64.250 160.732 C 62.462 160.550, 61 160.761, 61 161.201 C 61 162.354, 66.787 162.184, 69.066 160.965 C 72.232 159.270, 71.373 157.151, 67.250 156.482 C 65.188 156.147, 62.466 155.451, 61.203 154.936 C 58.185 153.706, 57.036 153.791, 59.250 155.080 M 128.500 154.740 C 122.854 155.169, 120.949 156.354, 122.859 158.250 C 123.869 159.252, 123.986 159.153, 123.452 157.750 C 122.872 156.226, 123.439 156, 127.834 156 C 130.610 156, 133.160 155.550, 133.500 155 C 133.840 154.450, 133.979 154.081, 133.809 154.180 C 133.639 154.279, 131.250 154.531, 128.500 154.740 M 217.441 156.453 C 215.596 157.833, 215.674 157.944, 219 158.692 L 222.500 159.479 218 160.124 L 213.500 160.769 217.922 160.635 C 222.296 160.501, 225.298 158, 221.083 158 C 218.803 158, 218.257 156.467, 220.250 155.662 C 220.938 155.385, 221.024 155.122, 220.441 155.079 C 219.859 155.036, 218.509 155.654, 217.441 156.453 M 469 168.934 L 469 181.867 466.250 182.284 C 463.690 182.671, 463.725 182.711, 466.750 182.850 L 470 183 470 169.500 C 470 162.075, 469.775 156, 469.500 156 C 469.225 156, 469 161.820, 469 168.934 M 637.185 156.742 C 643.412 157.017, 644.954 157.406, 645.319 158.791 C 645.644 160.027, 645.800 159.878, 645.884 158.250 C 645.996 156.074, 645.729 156.007, 637.750 156.201 L 629.500 156.402 637.185 156.742 M 199.473 158.044 C 198.281 159.973, 201.156 162.003, 204.872 161.858 L 208.500 161.716 204.500 161.108 C 201.508 160.653, 200.535 160.059, 200.639 158.750 C 200.797 156.760, 200.411 156.526, 199.473 158.044 M 92.958 163.250 C 97.463 168.050, 99 168.961, 99 166.833 C 99 166.192, 98.690 165.977, 98.311 166.356 C 97.932 166.735, 95.569 165.122, 93.061 162.773 L 88.500 158.500 92.958 163.250 M 234 163.109 C 231.525 165.322, 227.250 168.449, 224.500 170.057 C 221.750 171.665, 219.974 172.985, 220.554 172.991 C 222.228 173.006, 230.089 167.673, 235 163.190 C 237.475 160.930, 239.275 159.083, 239 159.084 C 238.725 159.085, 236.475 160.896, 234 163.109 M 191.711 161.341 C 192.343 162.364, 200.999 166.334, 201.501 165.832 C 201.686 165.648, 199.435 164.363, 196.500 162.976 C 193.565 161.590, 191.410 160.855, 191.711 161.341 M 130.677 166.714 C 130.397 167.166, 131.930 167.369, 134.084 167.163 C 136.378 166.945, 138 167.223, 138 167.835 C 138 168.409, 136.313 169.056, 134.250 169.272 L 130.500 169.664 134.823 169.832 C 138.449 169.973, 139.093 169.717, 138.815 168.250 C 138.585 167.037, 137.363 166.406, 134.835 166.195 C 132.828 166.028, 130.957 166.261, 130.677 166.714 M 439.835 176.502 C 439.651 180.078, 439.837 183.003, 440.250 183.002 C 440.663 183.001, 441 180.075, 441 176.500 C 441 172.925, 440.813 170, 440.585 170 C 440.357 170, 440.020 172.926, 439.835 176.502 M 133.639 181.694 C 132.731 182.603, 132.842 199, 133.757 199 C 134.174 199, 134.450 195.287, 134.372 190.750 L 134.228 182.500 134.942 189 L 135.655 195.500 135.827 188.809 C 135.987 182.627, 135.215 180.118, 133.639 181.694 M 158.553 186.947 C 155.873 189.667, 153.415 191.805, 153.090 191.697 C 152.766 191.589, 152.426 191.900, 152.335 192.388 C 152.245 192.877, 151.583 193.640, 150.864 194.084 C 150.146 194.528, 149.795 195.128, 150.084 195.417 C 150.373 195.707, 153.723 192.806, 157.528 188.972 C 161.333 185.137, 164.217 182, 163.936 182 C 163.655 182, 161.232 184.226, 158.553 186.947 M 333.789 182.741 C 337.248 182.937, 342.648 182.936, 345.789 182.738 C 348.930 182.540, 346.100 182.380, 339.500 182.382 C 332.900 182.384, 330.330 182.546, 333.789 182.741 M 413.750 182.740 C 417.188 182.936, 422.813 182.936, 426.250 182.740 C 429.688 182.545, 426.875 182.385, 420 182.385 C 413.125 182.385, 410.313 182.545, 413.750 182.740 M 541.789 182.741 C 545.248 182.937, 550.648 182.936, 553.789 182.738 C 556.930 182.540, 554.100 182.380, 547.500 182.382 C 540.900 182.384, 538.330 182.546, 541.789 182.741 M 610.728 183.722 C 612.503 183.943, 615.653 183.946, 617.728 183.730 C 619.802 183.513, 618.350 183.333, 614.500 183.328 C 610.650 183.324, 608.952 183.501, 610.728 183.722 M 764.250 183.728 C 766.313 183.944, 769.688 183.944, 771.750 183.728 C 773.813 183.513, 772.125 183.336, 768 183.336 C 763.875 183.336, 762.188 183.513, 764.250 183.728 M 116.500 203 C 119.766 206.300, 122.662 209, 122.937 209 C 123.212 209, 120.766 206.300, 117.500 203 C 114.234 199.700, 111.338 197, 111.063 197 C 110.788 197, 113.234 199.700, 116.500 203 M 346.750 202.732 C 349.087 202.943, 352.913 202.943, 355.250 202.732 C 357.587 202.522, 355.675 202.349, 351 202.349 C 346.325 202.349, 344.413 202.522, 346.750 202.732 M 363.433 203.314 C 363.156 204.037, 363.057 209.550, 363.214 215.564 C 363.500 226.486, 363.503 226.500, 366 226.500 C 368.391 226.500, 368.522 226.183, 369 219.249 C 369.275 215.260, 369.163 211.998, 368.750 211.999 C 368.337 211.999, 368 215.150, 368 219 C 368 225.333, 367.810 226, 366 226 C 364.117 226, 364 225.333, 364 214.570 C 364 203.511, 364.073 203.125, 366.250 202.706 L 368.500 202.272 366.219 202.136 C 364.964 202.061, 363.710 202.591, 363.433 203.314 M 378.667 202.667 C 378.300 203.033, 378 205.985, 378 209.226 C 378 212.899, 377.623 214.885, 377 214.500 C 375.439 213.535, 375.826 214.611, 377.556 216.047 C 378.412 216.757, 379.034 216.925, 378.938 216.419 C 378.842 215.914, 378.816 212.717, 378.882 209.316 C 378.995 203.374, 379.107 203.117, 381.750 202.716 L 384.500 202.300 381.917 202.150 C 380.496 202.067, 379.033 202.300, 378.667 202.667 M 386.389 203.428 C 386.071 204.256, 386.043 205.511, 386.327 206.217 C 386.610 206.923, 386.878 206.488, 386.921 205.250 C 386.996 203.101, 387.378 203, 395.430 203 C 402.634 203, 403.922 203.255, 404.279 204.750 C 404.597 206.082, 404.673 206.022, 404.598 204.500 C 404.509 202.683, 403.698 202.474, 395.734 202.211 C 388.661 201.978, 386.856 202.213, 386.389 203.428 M 407.433 203.314 C 407.156 204.037, 407.074 209.550, 407.252 215.564 L 407.575 226.500 407.788 214.800 L 408 203.100 413.750 202.739 L 419.500 202.378 413.719 202.189 C 409.723 202.058, 407.781 202.406, 407.433 203.314 M 465.768 202.725 C 467.565 202.947, 470.265 202.943, 471.768 202.715 C 473.271 202.486, 471.800 202.304, 468.500 202.310 C 465.200 202.315, 463.971 202.502, 465.768 202.725 M 488.449 203.272 C 488.163 204.018, 488.074 209.550, 488.252 215.564 L 488.575 226.500 488.788 214.750 L 489 203 496.430 203 C 503.063 203, 503.909 203.216, 504.314 205.015 C 504.690 206.692, 504.744 206.650, 504.633 204.765 C 504.508 202.645, 504.004 202.481, 496.735 202.208 C 490.911 201.988, 488.840 202.254, 488.449 203.272 M 519.750 202.732 C 522.087 202.943, 525.913 202.943, 528.250 202.732 C 530.587 202.522, 528.675 202.349, 524 202.349 C 519.325 202.349, 517.413 202.522, 519.750 202.732 M 554.345 203.543 C 554.019 204.392, 554.034 205.367, 554.376 205.710 C 554.719 206.053, 555 205.601, 555 204.706 C 555 203.351, 556.470 203.022, 563.750 202.745 L 572.500 202.411 563.719 202.206 C 556.596 202.039, 554.825 202.292, 554.345 203.543 M 575.452 203.263 C 575.156 204.036, 575.067 208.455, 575.253 213.084 L 575.593 221.500 575.796 212.250 C 575.982 203.805, 576.170 203, 577.956 203 C 579.684 203, 579.956 203.847, 580.282 210.250 L 580.651 217.500 580.576 210 C 580.505 203.006, 580.348 202.478, 578.246 202.180 C 576.986 202.001, 575.753 202.479, 575.452 203.263 M 592.711 202.716 C 594.734 203.091, 594.951 203.797, 595.275 211.066 L 595.629 219.006 595.565 210.753 C 595.501 202.660, 595.451 202.498, 593 202.404 C 590.906 202.323, 590.859 202.373, 592.711 202.716 M 600.433 203.314 C 600.156 204.037, 600.074 209.550, 600.252 215.564 L 600.575 226.500 600.788 214.800 L 601 203.100 606.750 202.739 L 612.500 202.378 606.719 202.189 C 602.723 202.058, 600.781 202.406, 600.433 203.314 M 348.136 209.157 C 348.007 211.684, 348.266 211.832, 353.407 212.157 C 356.381 212.346, 358.604 212.162, 358.348 211.750 C 358.092 211.338, 355.915 211, 353.511 211 C 349.772 211, 349.076 210.674, 348.706 208.750 C 348.321 206.755, 348.257 206.801, 348.136 209.157 M 398.206 216.180 C 398.011 225.348, 397.881 225.884, 395.750 226.294 L 393.500 226.728 395.781 226.864 C 398.833 227.046, 399.140 225.861, 398.747 215.421 L 398.411 206.500 398.206 216.180 M 468.343 214.500 C 468.346 218.900, 468.522 220.576, 468.733 218.224 C 468.945 215.872, 468.942 212.272, 468.727 210.224 C 468.512 208.176, 468.339 210.100, 468.343 214.500 M 493.336 209 C 493.483 211.240, 493.987 211.531, 498.187 211.802 C 502.079 212.053, 502.955 212.477, 503.351 214.302 C 503.751 216.149, 503.801 216.100, 503.664 214 C 503.517 211.760, 503.013 211.469, 498.813 211.198 C 494.921 210.947, 494.045 210.523, 493.649 208.698 C 493.249 206.851, 493.199 206.900, 493.336 209 M 521.136 209.250 C 521.005 211.897, 521.185 212, 525.930 212 C 530.234 212, 530.922 212.286, 531.344 214.250 C 531.770 216.233, 531.808 216.203, 531.664 214 C 531.517 211.760, 531.013 211.469, 526.813 211.198 C 522.902 210.946, 522.055 210.532, 521.699 208.698 C 521.346 206.877, 521.249 206.972, 521.136 209.250 M 566.365 216.500 C 566.368 222, 566.536 224.122, 566.738 221.216 C 566.941 218.311, 566.939 213.811, 566.734 211.216 C 566.528 208.622, 566.363 211, 566.365 216.500 M 434 217.623 C 434 219.477, 437.558 222, 440.174 222 C 442.581 222, 446 219.330, 446 217.449 C 446 216.957, 445.299 217.555, 444.443 218.777 C 442.357 221.756, 437.643 221.756, 435.557 218.777 C 434.701 217.555, 434 217.035, 434 217.623 M 535.116 220.250 C 535.203 221.943, 535.345 222.067, 535.689 220.750 C 535.941 219.787, 536.866 219, 537.745 219 C 538.623 219, 540.278 219.787, 541.421 220.750 C 543.498 222.498, 543.498 222.498, 541.595 220.250 C 540.547 219.012, 538.635 218, 537.345 218 C 535.545 218, 535.027 218.523, 535.116 220.250 M 347.250 226.728 C 349.313 226.944, 352.688 226.944, 354.750 226.728 C 356.813 226.513, 355.125 226.336, 351 226.336 C 346.875 226.336, 345.188 226.513, 347.250 226.728 M 492.728 226.722 C 494.503 226.943, 497.653 226.946, 499.728 226.730 C 501.802 226.513, 500.350 226.333, 496.500 226.328 C 492.650 226.324, 490.952 226.501, 492.728 226.722 M 520.250 226.728 C 522.313 226.944, 525.688 226.944, 527.750 226.728 C 529.813 226.513, 528.125 226.336, 524 226.336 C 519.875 226.336, 518.188 226.513, 520.250 226.728" stroke="none" fill="#b5c191" fill-rule="evenodd"/><path d="M 130.528 7.239 C 123.738 15.170, 117.241 31.345, 119.425 34.879 C 119.819 35.516, 121.396 35.109, 123.626 33.793 C 128.407 30.973, 139.828 30.219, 145.870 32.325 L 150.240 33.849 149.777 29.032 C 149.523 26.383, 148.297 22.255, 147.054 19.858 C 144.091 14.146, 136.139 3, 135.027 3 C 134.548 3, 132.523 4.907, 130.528 7.239 M 41 41.901 C 41 42.838, 45.621 47.076, 49.662 49.844 L 52.824 52.011 50.972 48.177 C 49.953 46.069, 48.408 43.754, 47.539 43.032 C 45.794 41.584, 41 40.755, 41 41.901 M 62 44.921 C 62 47.290, 62.759 49.689, 63.967 51.139 L 65.933 53.500 65.953 50 C 65.980 45.221, 65.075 42.243, 63.401 41.601 C 62.349 41.197, 62 42.023, 62 44.921 M 72.038 60 C 72.034 62.475, 72.467 65.175, 73 66 C 73.765 67.184, 73.973 66.964, 73.985 64.950 C 73.993 63.548, 74.426 61.973, 74.946 61.450 C 75.541 60.852, 75.179 59.573, 73.968 58 L 72.044 55.500 72.038 60 M 44.750 58.662 C 45.438 58.940, 46 59.796, 46 60.564 C 46 61.333, 47.125 62.195, 48.500 62.481 C 49.875 62.766, 52.125 63.234, 53.500 63.519 C 56.882 64.221, 56.694 62.231, 53.250 60.871 C 51.737 60.274, 49.719 59.383, 48.764 58.892 C 47.809 58.402, 46.234 58.036, 45.264 58.079 C 44.217 58.126, 44.008 58.363, 44.750 58.662 M 74.276 69.885 C 74.559 72.897, 78.432 75.770, 79.565 73.809 C 79.981 73.089, 79.976 72.810, 79.554 73.190 C 78.697 73.961, 75.605 71.311, 74.663 69 C 74.311 68.135, 74.147 68.509, 74.276 69.885 M 53 72.500 C 51.950 73.765, 52.361 74.256, 55.628 75.636 C 60.676 77.768, 67.535 78.561, 68.429 77.115 C 69.039 76.128, 68.405 75.812, 66.362 76.085 C 66.011 76.132, 65.448 75.764, 65.112 75.267 C 64.486 74.341, 56.647 71, 55.102 71 C 54.631 71, 53.685 71.675, 53 72.500 M 82 81.656 C 72.733 83.077, 72.879 83.022, 74.407 84.549 C 76.291 86.433, 78.136 86.380, 82.466 84.315 C 85.546 82.846, 87.383 80.749, 85.250 81.136 C 84.838 81.211, 83.375 81.445, 82 81.656 M 82.400 90.163 C 82.065 90.705, 82.816 92.240, 84.070 93.574 C 86.706 96.381, 93 97.050, 93 94.523 C 93 91.486, 83.896 87.741, 82.400 90.163" stroke="none" fill="#a0b616" fill-rule="evenodd"/><path d="M 157 19.417 C 157 22.599, 159.039 23.173, 161.138 20.582 C 163.178 18.062, 162.674 17, 159.441 17 C 157.526 17, 157 17.521, 157 19.417 M 178.297 22.554 C 169.386 27.138, 158.058 37.192, 159.500 39.239 C 160.050 40.019, 162.009 42.703, 163.854 45.203 L 167.207 49.748 170.549 43.337 C 174.156 36.416, 179.606 29, 181.084 29 C 182.672 29, 182.038 34.322, 179.892 39 C 177.087 45.116, 176.607 47.571, 178.528 45.977 C 179.323 45.317, 180.639 45.031, 181.451 45.343 C 182.614 45.789, 182.716 46.504, 181.931 48.705 C 180.364 53.101, 174.068 61.160, 172.809 60.382 C 172.173 59.989, 171.968 60.140, 172.334 60.732 C 172.688 61.304, 172.083 62.007, 170.989 62.293 C 169.895 62.579, 169 63.625, 169 64.619 C 169 65.955, 170.244 65.199, 173.784 61.712 C 178.827 56.746, 181.002 55.852, 180.996 58.750 C 180.989 62.236, 176.973 67.124, 172.487 69.109 C 170.034 70.194, 167.506 72.076, 166.869 73.291 C 166.233 74.506, 163.330 78.780, 160.419 82.789 C 154.478 90.970, 152.083 98.776, 153.631 104.916 C 154.459 108.205, 154.836 108.449, 161.692 110.128 C 165.648 111.096, 170.261 112.601, 171.942 113.470 C 175.503 115.312, 175.721 114.648, 173.571 108.500 C 172.234 104.677, 172.003 104.513, 168.336 104.804 C 166.226 104.972, 163.709 104.522, 162.741 103.804 C 161.123 102.605, 161.649 101.498, 169.304 90 C 180.023 73.898, 183.435 67.770, 185.450 61 C 187.972 52.522, 190.004 41.028, 189.957 35.500 C 189.906 29.408, 187.758 19.753, 186.349 19.283 C 185.784 19.095, 182.160 20.566, 178.297 22.554" stroke="none" fill="#c5263a" fill-rule="evenodd"/><path d="M 276.484 120 C 276.484 185.175, 276.604 211.838, 276.750 179.250 C 276.896 146.663, 276.896 93.338, 276.750 60.750 C 276.604 28.163, 276.484 54.825, 276.484 120 M 107.661 17.707 C 105.941 18.150, 105.967 18.336, 108.056 20.560 C 110.637 23.306, 112 22.920, 112 19.441 C 112 17.038, 111.315 16.764, 107.661 17.707 M 81.175 24.064 C 78.626 35.106, 80.236 51.136, 85.186 64 C 87.762 70.692, 89.452 73.655, 98.024 86.508 C 107.412 100.584, 108.327 102.484, 106.464 104.030 C 105.564 104.777, 103.439 105.054, 101.057 104.735 C 96.953 104.184, 96 105.003, 96 109.082 C 96 110.137, 95.315 111, 94.478 111 C 93.642 111, 86.329 106.110, 78.228 100.134 C 70.128 94.158, 59.325 86.697, 54.221 83.556 C 45.035 77.900, 29.230 70, 27.103 70 C 25.435 70, 25.734 84.552, 27.545 91.540 C 29.432 98.825, 35.865 109.918, 41.427 115.480 C 46.262 120.315, 54.637 126.579, 61 130.120 C 63.475 131.497, 66.497 133.257, 67.716 134.031 C 69.787 135.346, 70.170 135.162, 73.544 131.219 C 75.531 128.899, 77.571 127, 78.078 127 C 79.757 127, 79.036 130.053, 76.472 133.803 L 73.944 137.500 76.722 139.745 C 78.250 140.980, 79.725 141.990, 80 141.990 C 80.275 141.990, 81.212 139.179, 82.083 135.745 C 82.954 132.310, 83.997 128.758, 84.402 127.850 C 85.582 125.203, 79.018 123.593, 68 123.828 C 54.455 124.116, 48.431 120.586, 58.907 118.499 L 63.933 117.498 60.716 115.618 C 58.947 114.584, 54.125 112.013, 50 109.904 C 45.875 107.796, 40.925 104.598, 39 102.798 C 35.633 99.649, 35.587 99.511, 37.786 99.188 C 39.043 99.003, 42.120 100.052, 44.623 101.519 L 49.175 104.187 44.760 98.766 C 33.968 85.516, 29.632 72.205, 39.627 83.007 C 41.666 85.211, 44.370 88.699, 45.636 90.757 C 47.651 94.034, 47.941 94.211, 47.969 92.177 C 47.991 90.511, 48.496 89.948, 49.750 90.188 C 51.006 90.428, 51.646 91.789, 52.018 95.011 C 52.303 97.480, 53.316 100.613, 54.268 101.973 L 56 104.445 56 101.788 C 56 98.478, 57.646 94, 58.862 94 C 59.364 94, 59.951 97.128, 60.167 100.951 C 60.481 106.508, 61.025 108.398, 62.878 110.370 C 65.028 112.658, 71.082 115.731, 76.976 117.525 C 79.368 118.253, 79.342 118.154, 76.226 114.604 C 73.077 111.018, 72.104 107.672, 73.888 106.569 C 74.908 105.939, 81.345 113.468, 83.125 117.375 C 84.620 120.657, 87.332 120.745, 91.406 117.644 C 96.337 113.890, 102.622 111.020, 108.250 109.953 C 115.296 108.616, 116.543 107.158, 116.311 100.528 C 116.107 94.735, 115.155 92.397, 109.697 84.290 C 107.768 81.425, 105.890 77.306, 105.523 75.138 C 104.918 71.555, 104.522 71.135, 101.179 70.531 C 93.552 69.152, 85.648 60.952, 88.854 57.746 C 89.710 56.890, 90.810 57.362, 93.248 59.634 C 98.292 64.335, 102.122 67, 103.831 67 C 104.689 67, 103.391 65.696, 100.946 64.103 C 90.876 57.539, 84.925 49.675, 87.831 46.769 C 89.199 45.401, 91.005 46.824, 96.166 53.340 C 101.715 60.345, 100.872 57.556, 94.848 48.978 C 90.029 42.116, 87 35.116, 87 30.841 C 87 25.936, 91.899 30.955, 97.151 41.242 L 100.802 48.393 102.068 44.168 C 102.764 41.845, 103.821 40.104, 104.417 40.300 C 105.843 40.767, 106.336 47.061, 105.272 51.210 C 104.320 54.920, 104.702 59, 106.002 59 C 106.477 59, 107.186 57.987, 107.579 56.750 C 107.971 55.512, 109.351 52.821, 110.646 50.770 C 111.941 48.718, 113 46.071, 113 44.888 C 113 39.586, 105.199 31.454, 93.332 24.384 C 82.723 18.065, 82.560 18.061, 81.175 24.064 M 317.480 56.500 L 317.500 91.500 324.254 91.574 L 331.008 91.648 324.517 91.279 L 318.026 90.909 317.743 56.205 L 317.460 21.500 317.480 56.500 M 1010.441 50 C 1010.441 65.675, 1010.579 72.087, 1010.748 64.250 C 1010.917 56.412, 1010.917 43.587, 1010.748 35.750 C 1010.579 27.912, 1010.441 34.325, 1010.441 50 M 536.728 70.722 C 538.503 70.943, 541.653 70.946, 543.728 70.730 C 545.802 70.513, 544.350 70.333, 540.500 70.328 C 536.650 70.324, 534.952 70.501, 536.728 70.722 M 415.250 91.745 C 420.063 91.928, 427.938 91.928, 432.750 91.745 C 437.563 91.561, 433.625 91.411, 424 91.411 C 414.375 91.411, 410.438 91.561, 415.250 91.745 M 686.768 91.725 C 688.565 91.947, 691.265 91.943, 692.768 91.715 C 694.271 91.486, 692.800 91.304, 689.500 91.310 C 686.200 91.315, 684.971 91.502, 686.768 91.725 M 864.750 91.740 C 868.188 91.936, 873.813 91.936, 877.250 91.740 C 880.688 91.545, 877.875 91.385, 871 91.385 C 864.125 91.385, 861.313 91.545, 864.750 91.740 M 945.750 91.747 C 951.938 91.922, 962.063 91.922, 968.250 91.747 C 974.438 91.571, 969.375 91.428, 957 91.428 C 944.625 91.428, 939.563 91.571, 945.750 91.747 M 1007.250 91.746 C 1013.163 91.923, 1022.837 91.923, 1028.750 91.746 C 1034.662 91.569, 1029.825 91.425, 1018 91.425 C 1006.175 91.425, 1001.337 91.569, 1007.250 91.746 M 21.110 107.795 C 19.492 110.817, 20.749 113, 24.107 113 C 27.583 113, 27.649 112.381, 24.570 108.617 C 22.264 105.797, 22.189 105.779, 21.110 107.795 M 317.450 147.500 C 317.451 166.750, 317.585 174.483, 317.749 164.685 C 317.913 154.888, 317.912 139.138, 317.748 129.685 C 317.584 120.233, 317.450 128.250, 317.450 147.500 M 162.022 126.584 C 159.559 127.991, 154.384 131.679, 150.522 134.780 C 146.660 137.880, 144.161 139.535, 144.970 138.458 C 145.976 137.118, 145.581 137.265, 143.720 138.924 C 140.811 141.517, 140.218 142.537, 142.250 141.449 C 142.938 141.081, 142.225 141.852, 140.667 143.162 C 138.093 145.326, 137.946 145.787, 139.053 148.217 C 140.081 150.472, 141.108 150.994, 145.629 151.559 C 148.576 151.928, 152.937 151.937, 155.320 151.579 C 162.834 150.452, 165.505 153.046, 161.880 157.948 C 160.420 159.923, 160.054 161.274, 160.677 162.387 C 161.423 163.721, 162.525 163.057, 167.307 158.388 C 173.002 152.827, 173.037 152.758, 172.421 148.145 C 170.871 136.528, 168.411 124.631, 167.500 124.342 C 166.950 124.168, 164.485 125.177, 162.022 126.584 M 413.750 124.740 C 417.188 124.936, 422.813 124.936, 426.250 124.740 C 429.688 124.545, 426.875 124.385, 420 124.385 C 413.125 124.385, 410.313 124.545, 413.750 124.740 M 549.287 124.740 C 552.469 124.939, 557.419 124.937, 560.287 124.736 C 563.154 124.535, 560.550 124.372, 554.500 124.374 C 548.450 124.376, 546.104 124.541, 549.287 124.740 M 17.562 128.750 C 18.574 134.563, 22.516 145.498, 25.331 150.302 C 30.954 159.897, 41.029 169.027, 49.919 172.584 C 54.092 174.254, 54.131 174.249, 56.808 171.694 C 58.289 170.281, 63.445 167.314, 68.267 165.101 C 73.089 162.887, 77.308 160.360, 77.644 159.484 C 79.815 153.827, 66.140 138.768, 53 132.345 C 41.343 126.648, 35.123 125, 25.273 125 L 16.909 125 17.562 128.750 M 407.336 133 C 407.336 137.125, 407.513 138.813, 407.728 136.750 C 407.944 134.688, 407.944 131.313, 407.728 129.250 C 407.513 127.188, 407.336 128.875, 407.336 133 M 26.613 136.219 C 27.529 137.989, 30.879 142.039, 34.059 145.219 C 38.037 149.197, 39.293 151, 38.087 151 C 35.621 151, 34.824 152.083, 36.131 153.658 C 37.420 155.210, 42.594 155.466, 43.487 154.021 C 43.841 153.449, 45.512 153.968, 47.509 155.271 C 50.554 157.257, 50.706 157.554, 48.904 158 C 47.792 158.275, 46.914 158.950, 46.954 159.500 C 47.040 160.692, 55.550 160.814, 58.750 159.670 C 60.469 159.055, 61 159.235, 61 160.433 C 61 161.515, 61.949 162, 64.066 162 C 71.056 162, 73.629 157.529, 67.250 156.466 C 58.374 154.987, 44.830 147.452, 34.580 138.291 C 31.323 135.381, 27.824 133, 26.804 133 C 25.036 133, 25.027 133.152, 26.613 136.219 M 36.412 135.369 C 35.661 137.325, 36.684 139, 38.629 139 C 39.610 139, 40.027 138.240, 39.820 136.828 C 39.432 134.191, 37.226 133.247, 36.412 135.369 M 42 140.893 C 42 143.232, 44.483 144.328, 45.903 142.617 C 46.642 141.726, 46.605 141.005, 45.776 140.176 C 43.991 138.391, 42 138.769, 42 140.893 M 565.984 147.203 C 565.718 150.340, 565.865 152.540, 566.310 152.093 C 566.756 151.645, 566.974 149.079, 566.795 146.390 L 566.468 141.500 565.984 147.203 M 407.349 162 C 407.349 166.675, 407.522 168.588, 407.732 166.250 C 407.943 163.912, 407.943 160.088, 407.732 157.750 C 407.522 155.412, 407.349 157.325, 407.349 162 M 705.336 171 C 705.336 175.125, 705.513 176.813, 705.728 174.750 C 705.944 172.688, 705.944 169.313, 705.728 167.250 C 705.513 165.188, 705.336 166.875, 705.336 171 M 383.343 211.500 C 383.346 215.900, 383.522 217.576, 383.733 215.224 C 383.945 212.872, 383.942 209.272, 383.727 207.224 C 383.512 205.176, 383.339 207.100, 383.343 211.500 M 516.374 214.500 C 516.376 220.550, 516.541 222.896, 516.740 219.713 C 516.939 216.531, 516.937 211.581, 516.736 208.713 C 516.535 205.846, 516.372 208.450, 516.374 214.500 M 590.336 211 C 590.336 215.125, 590.513 216.813, 590.728 214.750 C 590.944 212.688, 590.944 209.313, 590.728 207.250 C 590.513 205.188, 590.336 206.875, 590.336 211 M 391.213 206.624 C 392.624 207.043, 392.987 208.667, 393.270 215.816 L 393.612 224.500 393.556 215.511 C 393.505 207.279, 393.332 206.506, 391.500 206.319 C 390.014 206.167, 389.940 206.246, 391.213 206.624 M 463.355 216.500 C 463.352 221.450, 463.521 223.601, 463.731 221.280 C 463.940 218.959, 463.943 214.909, 463.736 212.280 C 463.530 209.651, 463.358 211.550, 463.355 216.500" stroke="none" fill="#016c80" fill-rule="evenodd"/><path d="M 389.236 56.167 C 389.055 82.784, 388.710 90.950, 387.750 91.338 C 386.771 91.733, 386.778 91.859, 387.781 91.921 C 388.486 91.964, 389.280 91.435, 389.545 90.743 C 389.810 90.052, 389.902 74.190, 389.750 55.493 L 389.472 21.500 389.236 56.167 M 406.450 56.500 C 406.451 75.750, 406.585 83.483, 406.749 73.685 C 406.913 63.888, 406.912 48.138, 406.748 38.685 C 406.584 29.233, 406.450 37.250, 406.450 56.500 M 934.450 56.500 C 934.451 75.750, 934.585 83.483, 934.749 73.685 C 934.913 63.888, 934.912 48.138, 934.748 38.685 C 934.584 29.233, 934.450 37.250, 934.450 56.500 M 981.320 28 C 981.320 31.575, 981.502 33.038, 981.723 31.250 C 981.945 29.462, 981.945 26.538, 981.723 24.750 C 981.502 22.962, 981.320 24.425, 981.320 28 M 204.253 42.344 C 202.515 46.159, 201.504 54.425, 202.879 53.575 C 204.770 52.406, 208.142 45.003, 207.809 42.752 C 207.367 39.754, 205.529 39.543, 204.253 42.344 M 226.311 40.698 C 224.043 41.138, 217 48.212, 217 50.049 C 217 51.336, 225.820 44.702, 227.726 41.980 C 228.489 40.891, 228.975 40.061, 228.807 40.136 C 228.638 40.211, 227.515 40.464, 226.311 40.698 M 978.310 55.500 C 978.315 58.800, 978.502 60.029, 978.725 58.232 C 978.947 56.435, 978.943 53.735, 978.715 52.232 C 978.486 50.729, 978.304 52.200, 978.310 55.500 M 217.500 59.225 C 215.850 59.812, 213.600 60.928, 212.500 61.705 C 210.689 62.984, 210.926 63.061, 215 62.527 C 222.676 61.521, 224.820 60.922, 226.053 59.436 C 227.050 58.235, 226.694 58.013, 223.872 58.079 C 222.018 58.122, 219.150 58.638, 217.500 59.225 M 192.702 70.331 C 191.764 71.764, 190.402 72.708, 189.676 72.429 C 188.924 72.141, 187.859 73.015, 187.200 74.461 C 186.563 75.858, 186.371 76.983, 186.771 76.962 C 188.441 76.876, 195.226 70.179, 194.835 69.004 C 194.566 68.197, 193.781 68.685, 192.702 70.331 M 232.447 73.959 C 218.569 80.872, 206.917 88.219, 192 99.460 C 184.025 105.470, 176.793 110.397, 175.930 110.408 C 174.816 110.423, 174.492 111.124, 174.817 112.823 C 175.240 115.035, 175.093 115.131, 172.887 114.088 C 170.847 113.123, 170.769 113.144, 172.355 114.230 C 173.376 114.928, 175.787 116.727, 177.714 118.227 C 181.999 121.563, 183.332 121.040, 188.500 114 C 193.838 106.728, 198.179 104.901, 194.875 111.316 C 194.256 112.517, 192.828 114.513, 191.701 115.750 C 188.844 118.887, 191.051 118.689, 198.500 115.140 C 206.488 111.335, 207.631 109.793, 208.468 101.695 C 209.220 94.411, 211.236 92.838, 211.821 99.077 C 211.998 100.960, 212.497 102.864, 212.930 103.308 C 213.855 104.258, 217 98.062, 217 95.290 C 217 94.241, 217.644 92.509, 218.431 91.441 C 219.823 89.553, 219.887 89.567, 220.783 91.965 C 221.698 94.417, 221.717 94.408, 224.318 90.288 C 225.756 88.010, 228.345 84.538, 230.070 82.573 C 239.175 72.203, 234.570 85.898, 224.798 98.250 C 221.747 102.108, 222.021 103.055, 225.441 100.468 C 227.599 98.836, 233 98.465, 233 99.949 C 233 101.415, 227.299 105.321, 218.500 109.883 C 214.100 112.164, 209.375 114.914, 208 115.993 C 205.618 117.863, 205.599 117.957, 207.601 117.978 C 210.417 118.008, 216 120.001, 216 120.977 C 216 123.300, 203.775 125.329, 198.520 123.878 C 194.124 122.664, 184.293 124.994, 184.905 127.105 C 185.127 127.872, 186.024 131.537, 186.897 135.250 C 187.770 138.963, 188.938 141.985, 189.492 141.967 C 190.047 141.948, 191.585 141.030, 192.911 139.926 L 195.322 137.918 193.161 134.073 C 189.062 126.780, 191.143 124.288, 195.760 130.962 C 197.267 133.141, 198.888 134.941, 199.361 134.962 C 200.928 135.031, 216.396 125.212, 222.477 120.289 C 233.462 111.395, 241.006 98.860, 242.903 86.346 C 244.093 78.500, 243.395 70, 241.561 70 C 240.919 70, 236.818 71.781, 232.447 73.959 M 204 74.605 L 197.500 76.929 204 76.961 C 208.762 76.984, 211.369 76.463, 213.750 75.011 C 215.537 73.921, 217 72.798, 217 72.515 C 217 71.326, 210.042 72.445, 204 74.605 M 981.310 85.500 C 981.315 88.800, 981.502 90.029, 981.725 88.232 C 981.947 86.435, 981.943 83.735, 981.715 82.232 C 981.486 80.729, 981.304 82.200, 981.310 85.500 M 183 81.775 C 183 82.641, 190.290 85, 192.968 85 C 196.493 85, 197.051 83.260, 193.750 82.563 C 190.753 81.930, 183 81.361, 183 81.775 M 180.207 90.668 C 178.396 91.561, 176.468 93.126, 175.922 94.146 C 175.033 95.806, 175.343 96, 178.892 96 C 181.982 96, 183.311 95.420, 184.927 93.365 C 186.067 91.916, 187 90.341, 187 89.865 C 187 88.512, 183.819 88.888, 180.207 90.668 M 244.229 109.267 L 241.959 112.500 244.601 112.828 C 248.029 113.254, 249.413 111.783, 248.608 108.573 C 247.767 105.223, 246.983 105.347, 244.229 109.267 M 404.807 112.747 C 411.576 112.921, 422.376 112.920, 428.807 112.746 C 435.238 112.572, 429.700 112.431, 416.500 112.431 C 403.300 112.432, 398.038 112.574, 404.807 112.747 M 534.807 112.747 C 541.576 112.921, 552.376 112.920, 558.807 112.746 C 565.238 112.572, 559.700 112.431, 546.500 112.431 C 533.300 112.432, 528.038 112.574, 534.807 112.747 M 665.722 112.718 L 672.944 113.086 673.266 126.545 L 673.588 140.003 673.544 126.251 L 673.500 112.500 666 112.424 L 658.500 112.349 665.722 112.718 M 709.250 112.728 C 711.313 112.944, 714.688 112.944, 716.750 112.728 C 718.813 112.513, 717.125 112.336, 713 112.336 C 708.875 112.336, 707.188 112.513, 709.250 112.728 M 229 127.065 C 213.619 131.591, 199.278 142.208, 193.412 153.411 C 189.928 160.066, 190.257 160.584, 200.761 164.947 C 205.018 166.715, 210.244 169.541, 212.375 171.228 L 216.249 174.294 221.375 171.764 C 233.318 165.868, 243.209 154.883, 248.394 141.757 C 251.172 134.726, 253.113 126.446, 252.198 125.532 C 250.905 124.239, 235.042 125.288, 229 127.065 M 232.905 140.524 C 225.104 147.397, 209.555 156, 204.933 156 C 203.530 156, 201.526 156.626, 200.479 157.392 C 198.862 158.574, 198.776 159.025, 199.910 160.392 C 201.668 162.509, 208 162.579, 208 160.481 C 208 159.306, 208.623 159.134, 210.750 159.722 C 215.124 160.931, 222.267 160.650, 222.742 159.250 C 222.992 158.514, 222.310 158, 221.083 158 C 219.938 158, 219 157.622, 219 157.161 C 219 155.549, 223.894 154.109, 227.424 154.681 C 231.408 155.328, 235.170 153.353, 232.797 151.861 C 232.084 151.413, 230.600 151.284, 229.500 151.576 C 227.318 152.154, 227.394 152.071, 234.741 145.860 C 238.192 142.943, 243 136.712, 243 135.156 C 243 132.675, 240.009 134.266, 232.905 140.524 M 672.997 167.703 C 672.723 176.065, 672.850 182.554, 673.279 182.125 C 673.707 181.695, 673.930 174.853, 673.775 166.921 L 673.493 152.500 672.997 167.703 M 334.750 170.723 C 336.538 170.945, 339.462 170.945, 341.250 170.723 C 343.038 170.502, 341.575 170.320, 338 170.320 C 334.425 170.320, 332.962 170.502, 334.750 170.723 M 415.750 170.744 C 420.288 170.929, 427.712 170.929, 432.250 170.744 C 436.788 170.559, 433.075 170.407, 424 170.407 C 414.925 170.407, 411.212 170.559, 415.750 170.744 M 545.797 170.745 C 550.361 170.930, 557.561 170.929, 561.797 170.742 C 566.034 170.555, 562.300 170.404, 553.500 170.405 C 544.700 170.406, 541.234 170.559, 545.797 170.745 M 140.320 196 C 140.320 199.575, 140.502 201.037, 140.723 199.250 C 140.945 197.463, 140.945 194.537, 140.723 192.750 C 140.502 190.963, 140.320 192.425, 140.320 196 M 561.365 216.500 C 561.368 222, 561.536 224.122, 561.738 221.216 C 561.941 218.311, 561.939 213.811, 561.734 211.216 C 561.528 208.622, 561.363 211, 561.365 216.500 M 605.343 214.500 C 605.346 218.900, 605.522 220.576, 605.733 218.224 C 605.945 215.872, 605.942 212.272, 605.727 210.224 C 605.512 208.176, 605.339 210.100, 605.343 214.500" stroke="none" fill="#c37941" fill-rule="evenodd"/><path d="M 277 120 L 277 239 284.500 239 L 292 239 292 120 L 292 1 284.500 1 L 277 1 277 120 M 479.081 22.524 C 469.142 25.315, 463.784 29.917, 459.315 39.500 C 456.813 44.866, 456.517 46.609, 456.509 56 C 456.498 68.990, 458.362 74.962, 464.593 81.892 C 471.604 89.690, 476.295 91.500, 489.500 91.500 C 499.534 91.500, 501.003 91.253, 506.224 88.689 C 517.922 82.945, 523.251 72.871, 523.253 56.500 C 523.254 45.383, 521.828 40.466, 516.344 32.686 C 509.766 23.354, 492.700 18.700, 479.081 22.524 M 552.220 22 C 541.386 24.294, 535.663 30.481, 535.672 39.888 C 535.682 50.688, 540.495 55.269, 557.651 60.804 C 563.068 62.552, 568.950 64.872, 570.723 65.960 C 574.620 68.351, 575.882 72.338, 573.874 75.916 C 571.649 79.880, 568.306 81.118, 560.799 80.760 C 555.373 80.501, 553.612 79.984, 551.549 78.046 C 550.147 76.729, 549 74.605, 549 73.326 C 549 71.095, 548.689 71, 541.372 71 L 533.744 71 534.415 75.250 C 535.292 80.813, 539.411 85.898, 545.551 89 C 549.981 91.238, 551.707 91.499, 562 91.489 C 572.074 91.479, 574.095 91.184, 578.302 89.105 C 585.519 85.537, 588.368 81.186, 588.829 73.024 C 589.550 60.257, 585.456 56.130, 565.500 49.507 C 553.568 45.547, 550 43.124, 550 38.981 C 550 35.043, 553.198 32.731, 559.352 32.221 C 565.933 31.675, 570.703 33.849, 572.172 38.064 C 573.171 40.930, 573.361 41, 580.098 41 C 586.370 41, 587 40.814, 587 38.968 C 587 33.172, 581.481 26.481, 574.188 23.434 C 569.729 21.571, 557.893 20.798, 552.220 22 M 622.929 22.303 C 608.793 26.314, 601.046 36.160, 599.436 52.164 C 597.630 70.103, 605.488 84.649, 619.921 90.086 C 627.999 93.129, 642.351 92.494, 649.500 88.778 C 656.067 85.364, 660.261 80.850, 663.695 73.500 C 666.223 68.089, 666.493 66.470, 666.446 57 C 666.403 48.424, 665.964 45.408, 664.046 40.538 C 661.105 33.071, 654.040 25.902, 647.296 23.539 C 640.873 21.289, 628.681 20.671, 622.929 22.303 M 318 56.500 L 318 91 325 91 L 332 91 332 76.528 L 332 62.056 345.750 61.778 L 359.500 61.500 359.500 56 L 359.500 50.500 345.750 50.222 L 332 49.944 332 41.972 L 332 34 347.500 34 L 363 34 363 28 L 363 22 340.500 22 L 318 22 318 56.500 M 375 56.500 L 375 91 382 91 L 389 91 389 56.500 L 389 22 382 22 L 375 22 375 56.500 M 407 56.500 L 407 91 428.500 91 L 450 91 450 85 L 450 79 435.500 79 L 421 79 421 50.500 L 421 22 414 22 L 407 22 407 56.500 M 681 56.500 L 681 91 688.500 91 L 696 91 696 76.528 L 696 62.056 709.750 61.778 L 723.500 61.500 723.500 56 L 723.500 50.500 709.750 50.222 L 696 49.944 696 41.972 L 696 34 711.500 34 L 727 34 727 28 L 727 22 704 22 L 681 22 681 56.500 M 739 56.500 L 739 91 746 91 L 753 91 753 56.500 L 753 22 746 22 L 739 22 739 56.500 M 775.500 55.135 C 768.900 73.345, 763.351 88.885, 763.168 89.668 C 762.899 90.818, 764.224 91.034, 770.088 90.795 L 777.340 90.500 779.753 83.250 L 782.167 76 795 76 L 807.833 76 810.247 83.250 L 812.660 90.500 819.830 90.794 C 823.773 90.955, 827.006 90.730, 827.013 90.294 C 827.020 89.857, 821.514 74.313, 814.777 55.750 L 802.529 22 795.014 22.012 L 787.500 22.025 775.500 55.135 M 859 56.405 L 859 91 875.818 91 C 894.655 91, 900.718 89.826, 907.478 84.871 C 916.330 78.381, 920.483 67.995, 919.815 54.017 C 919.310 43.447, 916.104 36.017, 909.576 30.286 C 902.126 23.744, 897.976 22.710, 877.250 22.231 L 859 21.809 859 56.405 M 935 56.500 L 935 91 958 91 L 981 91 981 85.500 L 981 80 965 80 L 949 80 949 71 L 949 62 963.500 62 L 978 62 978 56 L 978 50 963.500 50 L 949 50 949 42 L 949 34 965 34 L 981 34 981 28 L 981 22 958 22 L 935 22 935 56.500 M 996 56.500 L 996 91 1018 91 L 1040 91 1040 85.027 L 1040 79.053 1025.250 78.777 L 1010.500 78.500 1010.234 50.250 L 1009.969 22 1002.984 22 L 996 22 996 56.500 M 480.411 34.835 C 473.469 39.194, 470.718 45.722, 470.751 57.756 C 470.767 63.557, 471.305 66.102, 473.434 70.454 C 477.001 77.745, 481.393 80.488, 489.500 80.489 C 502.692 80.491, 509.815 70.845, 508.770 54.395 C 508.232 45.921, 505.227 39.010, 500.669 35.764 C 496.200 32.582, 484.830 32.061, 480.411 34.835 M 623.984 34.852 C 617.359 38.372, 614.015 45.755, 614.006 56.884 C 613.998 65.660, 615.738 70.697, 620.473 75.602 C 623.817 79.067, 625.367 79.890, 629.614 80.462 C 636.886 81.441, 642.078 79.763, 646.326 75.061 C 650.609 70.321, 651.987 65.782, 651.994 56.399 C 652.003 45.566, 648.482 37.852, 641.998 34.499 C 637.897 32.379, 628.284 32.567, 623.984 34.852 M 873 57.026 L 873 80.239 882.250 79.833 C 894.207 79.309, 899.201 76.822, 902.946 69.524 C 905.079 65.367, 905.491 63.227, 905.448 56.524 C 905.384 46.703, 902.979 41.339, 896.807 37.251 C 893.115 34.806, 891.561 34.462, 882.827 34.156 L 873 33.813 873 57.026 M 790.221 49.790 C 787.900 56.825, 786 62.900, 786 63.290 C 786 63.681, 790.098 64, 795.107 64 C 803.104 64, 804.138 63.802, 803.590 62.374 C 803.247 61.480, 801.315 55.405, 799.298 48.874 C 797.280 42.343, 795.362 37, 795.036 37 C 794.709 37, 792.543 42.756, 790.221 49.790 M 125.838 40.469 C 124.175 41.408, 122.520 43.758, 121.426 46.736 C 120.463 49.356, 118.448 52.850, 116.948 54.500 C 115.448 56.150, 113.894 58.625, 113.495 60 C 112.792 62.424, 112.872 62.403, 116.135 59.311 C 120.248 55.414, 123.791 54, 129.443 54 C 135.184 54, 139.409 55.915, 145.832 61.425 C 151.723 66.480, 152.205 66.662, 153.992 64.509 C 157.429 60.368, 151.351 47.155, 143.800 42.354 C 138.576 39.033, 129.980 38.130, 125.838 40.469 M 152.022 43.677 C 155.873 48.064, 157.564 51.855, 158.516 58.237 C 159.507 64.876, 158.599 67.596, 154.969 68.861 C 150.986 70.249, 147.830 69.019, 142.303 63.925 C 137.282 59.297, 134.363 58, 128.970 58 C 121.624 58, 114.070 67.476, 114.022 76.750 C 114.010 79.088, 114.450 81, 115 81 C 115.550 81, 116 80.027, 116 78.838 C 116 72.640, 126.304 62, 132.306 62 C 136.579 62, 141.516 66.165, 143.547 71.485 C 146.799 80, 143.754 94.257, 137.791 98.434 C 134.539 100.711, 129.078 100.422, 126.314 97.826 C 123.344 95.035, 123.296 97.070, 126.252 100.506 C 127.731 102.226, 129.878 103.308, 132.510 103.661 C 136.165 104.151, 136.788 104.696, 139.589 109.849 C 142.985 116.096, 144.394 116.843, 147.799 114.201 C 149.982 112.507, 150.020 112.269, 148.555 109.459 C 146.819 106.128, 146.489 96.269, 147.944 91.195 C 148.464 89.384, 150.065 86.462, 151.502 84.701 C 156.207 78.939, 161.229 70.756, 162.184 67.295 C 164.172 60.096, 159.256 46.454, 153.092 42.065 C 148.774 38.991, 148.400 39.553, 152.022 43.677 M 128.229 42.669 C 127.530 42.951, 126.312 44.429, 125.523 45.955 L 124.088 48.730 129.794 49.317 C 132.932 49.640, 137.199 50.211, 139.277 50.587 L 143.053 51.270 141.957 48.387 C 140.110 43.529, 138.073 41.993, 133.595 42.079 C 131.343 42.122, 128.928 42.388, 128.229 42.669 M 174 49.250 C 168.979 55.649, 168.335 56.975, 172.424 52.500 C 175.895 48.700, 178.499 45, 177.703 45 C 177.500 45, 175.834 46.913, 174 49.250 M 602.552 113.593 C 587.735 118.333, 580.694 129.255, 580.694 147.500 C 580.694 158.390, 582.071 163.594, 586.737 170.337 C 596.228 184.051, 621.217 187.343, 635.151 176.715 C 639.702 173.244, 643.500 166.803, 644.563 160.750 L 645.223 157 638.080 157 C 632.141 157, 630.850 157.295, 630.420 158.750 C 627.848 167.446, 622.808 171.336, 614.122 171.328 C 601.710 171.317, 595.011 162.965, 595.011 147.500 C 595.011 136.912, 598.389 129.429, 604.881 125.637 C 609.130 123.156, 618.184 122.994, 622.662 125.319 C 626.446 127.283, 630 131.553, 630 134.135 C 630 135.792, 630.850 136, 637.625 136 L 645.250 136 644.634 132.920 C 643.025 124.876, 637.544 118.455, 629.096 114.718 C 622.978 112.012, 609.306 111.432, 602.552 113.593 M 756.792 113.338 C 742.242 117.453, 734.470 129.596, 734.610 148 C 734.729 163.831, 740.283 174.074, 751.776 179.663 C 756.910 182.160, 758.583 182.450, 768 182.473 C 776.654 182.495, 779.313 182.124, 783.122 180.363 C 790.063 177.153, 795.355 171.813, 798.582 164.762 C 801.182 159.079, 801.447 157.484, 801.447 147.500 C 801.447 137.516, 801.182 135.921, 798.582 130.238 C 795.336 123.145, 789.980 117.764, 783.168 114.750 C 777.365 112.183, 763.502 111.441, 756.792 113.338 M 318 147.500 L 318 182 334.411 182 C 347.739 182, 351.971 181.642, 356.942 180.095 C 365.553 177.415, 371.537 172.208, 375.357 164.072 C 378.115 158.196, 378.445 156.494, 378.471 148 C 378.514 133.750, 374.785 125.388, 365.553 119.036 C 358.688 114.313, 351.778 113, 333.790 113 L 318 113 318 147.500 M 393 147.500 L 393 182 416.500 182 L 440 182 440 176.525 L 440 171.050 423.750 170.775 L 407.500 170.500 407.199 163.521 C 406.672 151.293, 405.732 152, 422.519 152 L 437 152 437 146.527 L 437 141.053 422.250 140.777 L 407.500 140.500 407.194 134.542 C 406.620 123.377, 405.626 124, 424.019 124 L 440 124 440 118.500 L 440 113 416.500 113 L 393 113 393 147.500 M 455 147.424 L 455 182 461.971 182 L 468.942 182 469.221 168.750 L 469.500 155.500 477.111 155.544 C 489.007 155.612, 490.302 156.918, 494.435 173 L 496.620 181.500 503.810 181.794 C 507.764 181.955, 511 181.676, 511 181.174 C 511 180.671, 509.622 175.589, 507.938 169.880 C 504.206 157.228, 501.397 152.616, 496.420 150.974 L 492.745 149.761 497.622 147.130 C 504.237 143.563, 507.353 137.715, 506.639 130.209 C 505.979 123.272, 503.408 119.068, 497.949 116 C 493.703 113.614, 492.623 113.485, 474.250 113.174 L 455 112.847 455 147.424 M 523 147.500 L 523 182 545.907 182 L 568.815 182 569.157 176.499 L 569.500 170.997 553.212 170.999 L 536.925 171 537.212 161.750 L 537.500 152.500 551.750 152.223 L 566 151.945 566 146.473 L 566 141 551.460 141 L 536.919 141 537.210 132.750 L 537.500 124.500 553.500 124.228 L 569.500 123.956 569.157 118.478 L 568.815 113 545.907 113 L 523 113 523 147.500 M 659 147.500 L 659 182 665.973 182 L 672.947 182 673.223 167.308 L 673.500 152.616 688.500 152.777 C 696.750 152.865, 704.063 152.951, 704.750 152.969 C 705.691 152.992, 706 156.583, 706 167.500 L 706 182 713 182 L 720 182 720 147.500 L 720 113 713 113 L 706 113 706 126.500 L 706 140 689.500 140 L 673 140 673 126.500 L 673 113 666 113 L 659 113 659 147.500 M 110.372 116.379 C 105.902 117.606, 101.056 119.389, 99.602 120.341 C 92.980 124.680, 88.772 135.049, 87.362 150.500 L 86.815 156.500 92.311 161.870 L 97.806 167.240 96.304 160.370 C 95.478 156.592, 94.751 149, 94.689 143.500 C 94.560 132.182, 95.553 129.356, 101.484 124.148 C 105.210 120.877, 107 120.214, 107 122.105 C 107 127.075, 120.242 144.158, 122.413 141.987 C 123.079 141.321, 121.862 139.406, 118.762 136.244 C 113.344 130.717, 108.520 121.283, 110.124 119.350 C 110.694 118.664, 112.744 117.580, 114.680 116.941 C 118.054 115.827, 118.371 115.940, 122.350 119.663 C 131.062 127.815, 131.960 128.440, 133.183 127.217 C 134.058 126.342, 132.778 124.605, 127.920 120.075 C 124.389 116.782, 120.825 114.102, 120 114.119 C 119.175 114.135, 114.843 115.153, 110.372 116.379 M 150.400 118.844 C 143.987 123.521, 132.764 136.109, 128.633 143.257 C 126.506 146.938, 124.137 150.472, 123.367 151.110 C 122.472 151.854, 119.689 152.088, 115.633 151.763 C 106.252 151.010, 103.201 153.653, 108.572 157.878 C 111.087 159.856, 111.114 160.008, 109.793 164.701 C 108.775 168.315, 107.910 169.577, 106.293 169.810 C 101.772 170.463, 101.844 172.446, 106.531 176.364 C 108.989 178.419, 111 180.649, 111 181.321 C 111 181.993, 113.257 185.639, 116.016 189.423 C 118.774 193.206, 120.785 196.549, 120.484 196.850 C 120.183 197.151, 115.113 192.458, 109.218 186.421 C 98.575 175.521, 83.857 162, 82.637 162 C 82.287 162, 82 163.710, 82 165.800 C 82 169.426, 81.850 169.600, 78.729 169.600 C 75.364 169.600, 66 173.554, 66 174.975 C 66 175.413, 70.387 177.180, 75.750 178.901 C 81.112 180.622, 90.212 184.386, 95.971 187.265 C 104.538 191.548, 108.091 194.076, 115.505 201.161 C 124.113 209.389, 127.996 214.337, 126.791 215.543 C 126.490 215.843, 122.811 213.625, 118.614 210.614 C 114.418 207.603, 108.625 203.989, 105.742 202.584 C 99.468 199.526, 47.885 182.953, 46.776 183.639 C 46.349 183.902, 46 185.416, 46 187.003 C 46 190.168, 43.606 189.217, 77.175 199.389 C 81.946 200.835, 88.021 202.277, 90.675 202.593 C 97.485 203.406, 110 207.097, 110 208.293 C 110 208.934, 106.979 209.063, 101.620 208.651 C 94.832 208.129, 93.003 208.291, 91.997 209.503 C 91.314 210.327, 90.193 211, 89.507 211 C 88.820 211, 77.383 207.358, 64.092 202.907 C 50.800 198.457, 39.267 195.067, 38.462 195.376 C 37.658 195.685, 37 197.044, 37 198.397 C 37 200.464, 37.883 201.187, 42.538 202.928 C 45.583 204.068, 48.470 205, 48.953 205 C 49.436 205, 58.938 208.183, 70.070 212.074 L 90.310 219.147 93.147 217.050 C 95.991 214.946, 100.276 214.847, 115.500 216.533 C 117.150 216.716, 118.838 216.895, 119.250 216.933 C 119.662 216.970, 120 218.058, 120 219.351 C 120 221.631, 127.629 232.626, 131.782 236.330 C 133.417 237.788, 134.250 237.936, 135.887 237.061 C 138.785 235.510, 147.809 224.135, 149.218 220.258 C 150.548 216.597, 151.030 216.456, 165.416 215.534 C 173.513 215.015, 174.535 215.154, 176.547 217.044 L 178.762 219.125 205.131 210.245 L 231.500 201.364 231.813 198.182 C 232.002 196.266, 231.668 195, 230.975 195 C 230.341 195, 218.588 198.648, 204.857 203.106 C 181.513 210.685, 179.773 211.105, 178.079 209.571 C 176.567 208.203, 174.918 208.043, 168.133 208.609 C 153.057 209.867, 159.994 205.846, 178.539 202.578 C 187.490 201.001, 220.824 191.348, 222.750 189.776 C 224.193 188.597, 224.430 184.384, 223.099 183.561 C 222.603 183.254, 215.965 185.008, 208.349 187.457 C 200.732 189.906, 188.661 193.776, 181.524 196.056 C 166.637 200.813, 158.021 204.925, 149.520 211.329 C 146.231 213.806, 143.192 215.619, 142.767 215.356 C 139.976 213.631, 158.789 194.659, 168 189.910 C 176.671 185.438, 188.969 180.402, 197.250 177.930 C 200.963 176.822, 204 175.546, 204 175.094 C 204 173.755, 192.169 168.851, 189.753 169.189 C 187.750 169.469, 187.560 169.127, 187.841 165.750 C 188.013 163.688, 187.828 162, 187.430 162 C 185.937 162, 177.053 169.858, 163.250 183.388 C 155.412 191.070, 149 196.928, 149 196.406 C 149 193.665, 171.672 166.085, 179.457 159.355 L 183.917 155.500 181.566 143.908 C 180.273 137.532, 178.520 130.973, 177.672 129.333 C 175.171 124.497, 168.579 119.250, 162.878 117.556 C 155.817 115.460, 154.913 115.553, 150.400 118.844 M 151 125.995 C 141.895 133.434, 131.915 144.377, 129.983 149.041 C 128.994 151.430, 127.905 152.086, 123.362 153.029 C 120.371 153.650, 115.804 154.010, 113.212 153.829 C 109.544 153.573, 108.500 153.832, 108.500 155 C 108.500 156.013, 110.189 156.825, 113.701 157.500 C 116.561 158.050, 119.464 159.063, 120.151 159.750 C 120.838 160.438, 123.227 161, 125.459 161 C 128.436 161, 129.852 161.534, 130.768 163 C 131.476 164.134, 133.100 165, 134.518 165 C 135.894 165, 137.790 164.100, 138.732 163 C 139.873 161.668, 141.682 161, 144.151 161 C 146.189 161, 148.459 160.398, 149.194 159.663 C 149.929 158.928, 152.454 158.068, 154.805 157.753 C 159.287 157.152, 162.351 155.376, 161.442 153.907 C 161.148 153.430, 158.340 153.274, 155.203 153.560 C 151.915 153.860, 147.464 153.527, 144.691 152.774 C 139.994 151.497, 140.134 151.471, 150.691 151.626 C 156.636 151.714, 161.789 151.834, 162.143 151.893 C 163.890 152.184, 163.749 155.420, 161.880 157.948 C 160.457 159.873, 160.061 161.286, 160.649 162.337 C 161.368 163.623, 162.283 163.166, 166.008 159.658 C 173.654 152.458, 173.344 153.765, 170.957 138.843 C 169.783 131.504, 168.466 125.126, 168.030 124.669 C 166.830 123.410, 160.100 127.230, 151.547 134.027 C 146.609 137.951, 144.460 139.227, 145.523 137.605 C 147.133 135.148, 157.745 126.140, 163.241 122.565 C 166.445 120.481, 166.002 118.990, 162.191 119.025 C 160.366 119.042, 156.764 121.285, 151 125.995 M 761.500 124.492 C 753.433 127.325, 748.994 135.567, 749.006 147.693 C 749.020 162.906, 755.786 171.323, 768 171.323 C 774.320 171.323, 778.620 169.429, 782.342 165.005 C 785.699 161.016, 786.988 156.146, 786.994 147.428 C 787.004 134.690, 782.223 126.544, 773.277 124.060 C 768.399 122.705, 766.378 122.779, 761.500 124.492 M 332 147.359 L 332 171 338.250 170.976 C 351.294 170.925, 358.639 167.330, 362.214 159.249 C 363.810 155.642, 364.124 153.099, 363.845 146.065 C 363.550 138.618, 363.109 136.759, 360.816 133.296 C 357.027 127.574, 351.020 124.905, 340.449 124.245 L 332 123.718 332 147.359 M 469.750 124.577 C 469.337 124.993, 469 129.578, 469 134.766 L 469 144.199 477.921 143.849 C 485.719 143.544, 487.166 143.195, 489.421 141.076 C 493.103 137.615, 493.102 130.384, 489.420 126.924 C 487.208 124.846, 485.675 124.452, 478.670 124.161 C 474.177 123.974, 470.163 124.162, 469.750 124.577 M 133.350 153 L 133.950 156 128.475 156 C 125.464 156, 123 156.341, 123 156.757 C 123 157.174, 125.019 157.354, 127.487 157.158 C 131.548 156.835, 132.067 157.047, 132.962 159.400 C 134.177 162.597, 135.752 162.768, 136.180 159.750 C 136.446 157.880, 137.175 157.471, 140.500 157.331 C 146.798 157.065, 146.936 156.721, 141 156.087 C 135.706 155.522, 135.512 155.397, 135.822 152.750 C 136.061 150.704, 135.709 150, 134.447 150 C 133.095 150, 132.872 150.610, 133.350 153 M 111.251 163.747 C 110.498 167.038, 110.483 168.878, 111.205 169.747 C 112.006 170.712, 111.412 171, 108.622 171 C 104.108 171, 103.752 173.240, 107.986 174.994 C 111.277 176.357, 119.513 175.598, 120.605 173.830 C 121.431 172.493, 119.176 171.035, 116.250 171.015 C 114.168 171.001, 114 170.551, 114 165 C 114 161.700, 113.626 159, 113.168 159 C 112.711 159, 111.848 161.136, 111.251 163.747 M 154.607 160.582 C 154.273 161.452, 154 163.927, 154 166.082 C 154 169.638, 154.241 170, 156.608 170 C 158.922 170, 159.143 169.705, 158.560 167.383 C 158.199 165.944, 157.644 163.469, 157.327 161.883 C 156.690 158.698, 155.541 158.148, 154.607 160.582 M 130 168 C 130 169.704, 130.667 170, 134.500 170 C 138.333 170, 139 169.704, 139 168 C 139 166.296, 138.333 166, 134.500 166 C 130.667 166, 130 166.296, 130 168 M 130.570 171.887 C 129.513 173.596, 127.883 197.519, 128.484 202.485 C 129.748 212.922, 133.442 227, 134.916 227 C 136.185 227, 139.103 215.032, 140.226 205.224 C 141.002 198.440, 140.971 192.823, 140.109 184.322 C 139.461 177.928, 138.695 172.315, 138.406 171.848 C 137.711 170.723, 131.269 170.755, 130.570 171.887 M 148.750 171.689 C 145.966 172.417, 146.705 173.748, 150.608 175.036 C 156.137 176.860, 165.138 174.650, 163.430 171.887 C 162.876 170.991, 151.983 170.844, 148.750 171.689 M 59.550 180.902 C 60.796 182.085, 86.534 190.134, 85.379 188.979 C 84.374 187.974, 61.668 180, 59.811 180 C 59.056 180, 58.958 180.340, 59.550 180.902 M 197 183.863 C 186.978 187.127, 180.265 189.873, 182.072 189.970 C 182.386 189.986, 184.636 189.361, 187.072 188.580 C 189.507 187.800, 195.550 185.934, 200.500 184.436 C 209.039 181.850, 213.189 179.928, 209.950 180.059 C 209.153 180.091, 203.325 181.803, 197 183.863 M 323.014 204.752 C 311.974 210.288, 317.604 227.624, 329.798 225.645 C 335.542 224.713, 341.019 218, 336.035 218 C 334.955 218, 333.589 218.900, 333 220 C 331.627 222.565, 325.951 222.718, 323.748 220.250 C 321.190 217.384, 321.094 211.049, 323.571 208.571 C 325.880 206.263, 331.676 206.527, 333 209 C 334.112 211.077, 338 211.804, 338 209.934 C 338 207.571, 335.871 205.151, 332.872 204.105 C 328.580 202.609, 327.091 202.707, 323.014 204.752 M 344 214.500 L 344 226 351 226 C 357.404 226, 358 225.824, 358 223.937 C 358 222.571, 357.409 221.934, 356.250 222.052 C 355.288 222.150, 353.038 222.178, 351.250 222.115 C 348.345 222.012, 348 221.687, 348 219.055 C 348 216.251, 348.228 216.095, 352.750 215.805 C 356.170 215.585, 357.500 215.080, 357.500 214 C 357.500 212.917, 356.162 212.415, 352.689 212.193 C 348.118 211.901, 347.894 211.751, 348.189 209.193 C 348.475 206.714, 348.858 206.500, 353 206.500 C 355.475 206.500, 357.613 206.162, 357.750 205.750 C 358.518 203.446, 357.423 203, 351 203 L 344 203 344 214.500 M 364 214.430 C 364 225.333, 364.115 226, 366 226 C 367.822 226, 368 225.333, 368 218.500 C 368 214.375, 368.337 211.029, 368.750 211.065 C 369.163 211.101, 371.668 214.476, 374.318 218.565 C 377.570 223.584, 379.763 226, 381.068 226 C 382.865 226, 383 225.199, 383 214.500 C 383 203.468, 382.914 203, 380.891 203 C 378.899 203, 378.802 203.417, 379.160 210.507 C 379.369 214.635, 379.211 217.898, 378.809 217.757 C 378.407 217.615, 375.919 214.350, 373.280 210.500 C 370.128 205.900, 367.715 203.390, 366.241 203.180 C 364.030 202.865, 364 203.017, 364 214.430 M 387.195 204.750 C 387.428 205.949, 388.474 206.500, 390.518 206.500 L 393.500 206.500 393.786 216.250 C 394.046 225.112, 394.248 226, 396 226 C 397.752 226, 397.954 225.112, 398.214 216.250 C 398.497 206.608, 398.527 206.500, 400.986 206.500 C 402.559 206.500, 403.596 205.857, 403.810 204.750 C 404.110 203.192, 403.197 203, 395.500 203 C 387.802 203, 386.891 203.192, 387.195 204.750 M 408 214.387 C 408 225.333, 408.115 226, 410 226 C 411.706 226, 412 225.333, 412 221.469 C 412 216.391, 413.582 215.033, 417.447 216.794 C 418.957 217.482, 420.080 219.184, 420.667 221.675 C 421.335 224.514, 422.138 225.582, 423.784 225.820 C 425.003 225.995, 426 225.725, 426 225.219 C 426 223.394, 423.688 217.466, 422.384 215.950 C 421.255 214.637, 421.367 214.130, 423.117 212.632 C 424.670 211.302, 425.018 210.197, 424.520 208.182 C 423.515 204.109, 422.538 203.596, 414.982 203.169 L 408 202.774 408 214.387 M 435.500 203.894 C 431.315 205.714, 429.500 208.948, 429.500 214.582 C 429.500 219.120, 429.931 220.385, 432.273 222.727 C 434.557 225.011, 435.919 225.500, 440 225.500 C 444.081 225.500, 445.443 225.011, 447.727 222.727 C 450.080 220.375, 450.500 219.128, 450.500 214.500 C 450.500 209.961, 450.064 208.610, 447.903 206.448 C 445.099 203.644, 438.974 202.383, 435.500 203.894 M 464 214.500 L 464 226 468.935 226 C 478.572 226, 483 222.467, 483 214.776 C 483 206.390, 478.926 203, 468.851 203 L 464 203 464 214.500 M 489 214.500 L 489 226 496.500 226 C 503.333 226, 504 225.822, 504 224 C 504 222.242, 503.333 222, 498.500 222 C 493.078 222, 493 221.958, 493 219.055 C 493 216.252, 493.228 216.095, 497.741 215.805 C 501.313 215.575, 502.564 215.069, 502.814 213.750 C 503.096 212.267, 502.362 212, 498.007 212 C 492.990 212, 492.875 211.934, 493.184 209.250 C 493.479 206.685, 493.853 206.480, 498.750 206.198 C 502.527 205.980, 504 205.489, 504 204.448 C 504 203.313, 502.380 203, 496.500 203 L 489 203 489 214.500 M 517 214.500 L 517 226.088 524.250 225.794 C 529.897 225.565, 531.500 225.168, 531.500 224 C 531.500 222.896, 530.116 222.420, 526.250 222.198 C 521.196 221.907, 521 221.787, 521 219.003 C 521 216.261, 521.248 216.094, 525.750 215.805 C 529.170 215.585, 530.500 215.080, 530.500 214 C 530.500 212.920, 529.170 212.415, 525.750 212.195 C 521.298 211.910, 521 211.716, 521 209.117 C 521 206.428, 521.160 206.346, 526.250 206.422 C 530.285 206.482, 531.500 206.153, 531.500 205 C 531.500 203.832, 529.897 203.435, 524.250 203.206 L 517 202.912 517 214.500 M 540.315 204.007 C 537.575 205.111, 535.704 208.494, 536.481 210.941 C 537.015 212.623, 542.487 216, 544.679 216 C 546.649 216, 549.885 219.135, 549.351 220.527 C 548.575 222.549, 541.416 222.527, 540.638 220.500 C 539.923 218.637, 536 218.506, 536 220.345 C 536 221.085, 536.788 222.382, 537.750 223.227 C 544.066 228.773, 555.407 224.743, 553.612 217.591 C 553.171 215.834, 551.696 214.684, 548.252 213.411 C 542.630 211.334, 541 210.218, 541 208.445 C 541 206.298, 544.873 205.687, 547.514 207.417 C 551.395 209.960, 554.207 209.354, 552.235 206.400 C 550.210 203.368, 544.665 202.255, 540.315 204.007 M 555.500 204 C 554.435 205.723, 556.040 207.063, 558.825 206.776 L 561.500 206.500 561.786 216.250 C 562.046 225.112, 562.248 226, 564 226 C 565.752 226, 565.954 225.112, 566.214 216.250 C 566.416 209.354, 566.866 206.463, 567.750 206.375 C 568.438 206.306, 569.675 206.194, 570.500 206.125 C 571.325 206.056, 572 205.325, 572 204.500 C 572 203.293, 570.451 203, 564.059 203 C 559.691 203, 555.840 203.450, 555.500 204 M 576 211.566 C 576 216.277, 576.447 220.966, 576.992 221.986 C 578.299 224.426, 584.240 226.326, 587.991 225.502 C 593.282 224.340, 595 220.875, 595 211.365 C 595 203.667, 594.841 203, 593 203 C 591.192 203, 591 203.667, 591 209.953 C 591 219.185, 589.686 222, 585.375 222 C 580.976 222, 580 219.923, 580 210.566 C 580 203.667, 579.824 203, 578 203 C 576.156 203, 576 203.667, 576 211.566 M 601 214.366 L 601 226 606.032 226 C 616.236 226, 621.793 220.950, 620.685 212.685 C 619.825 206.277, 616.588 203.847, 608.101 203.239 L 601 202.731 601 214.366 M 626.667 203.667 C 626.300 204.033, 626 209.208, 626 215.167 L 626 226 628.500 226 L 631 226 631 214.500 C 631 204.015, 630.838 203, 629.167 203 C 628.158 203, 627.033 203.300, 626.667 203.667 M 641.476 204.344 C 634.004 207.728, 634.046 220.896, 641.540 224.452 C 645.871 226.507, 648.834 226.399, 652.696 224.044 C 656.289 221.853, 658.678 215.839, 657.624 211.638 C 655.911 204.814, 648.164 201.314, 641.476 204.344 M 666.098 204.215 C 659.718 207.628, 661.066 212.865, 669.003 215.501 C 674.571 217.350, 676.299 219.577, 673.661 221.506 C 671.649 222.977, 667.038 222.263, 666.311 220.368 C 665.615 218.553, 662 218.604, 662 220.429 C 662 224.733, 670.140 227.257, 675.611 224.648 C 678.508 223.267, 679 222.525, 679 219.539 C 679 215.691, 677.259 214.097, 670.838 212.063 C 666.724 210.760, 665.415 208.731, 667.546 206.961 C 669.123 205.653, 674 206.453, 674 208.019 C 674 208.559, 675.125 209, 676.500 209 C 679.480 209, 679.678 207.923, 677.124 205.612 C 674.609 203.336, 669.057 202.633, 666.098 204.215 M 412.571 206.762 C 412.257 207.076, 412 208.635, 412 210.227 C 412 212.958, 412.210 213.103, 415.742 212.810 C 421.634 212.322, 421.551 207.115, 415.641 206.466 C 414.266 206.315, 412.885 206.449, 412.571 206.762 M 468.702 206.632 C 468.316 207.018, 468 210.633, 468 214.667 L 468 222 471.943 222 C 474.885 222, 476.282 221.435, 477.443 219.777 C 479.512 216.824, 479.419 211.707, 477.250 209.191 C 475.422 207.069, 469.913 205.420, 468.702 206.632 M 605.702 206.632 C 605.316 207.018, 605 210.633, 605 214.667 L 605 222 608.845 222 C 611.300 222, 613.288 221.339, 614.345 220.171 C 616.588 217.693, 616.530 210.777, 614.250 208.766 C 612.220 206.976, 606.729 205.604, 605.702 206.632 M 436.313 207.786 C 432.066 210.486, 432.978 220.454, 437.578 221.609 C 443.934 223.204, 448.391 217.789, 445.967 211.414 C 444.667 207.995, 443.355 207.031, 440 207.031 C 438.625 207.031, 436.966 207.370, 436.313 207.786 M 641.395 209.519 C 639.605 212.252, 639.960 218.041, 642.074 220.589 C 643.748 222.606, 649.371 222.352, 651.345 220.171 C 653.629 217.647, 653.526 210.786, 651.171 208.655 C 648.329 206.082, 643.359 206.522, 641.395 209.519" stroke="none" fill="#1f2743" fill-rule="evenodd"/></svg>